<svg aria-hidden="true" style="position: absolute; width: 0; height: 0; overflow: hidden;" version="1.1" xmlns="http://www.w3.org/2000/svg" xmlns:xlink="http://www.w3.org/1999/xlink">
<defs>
<symbol id="icon-bill-due" viewBox="0 0 32 32">
<path fill="#c94736" style="fill: var(--color1, #c94736)" d="M16 1.143c-2.938 0-5.811 0.871-8.254 2.504s-4.348 3.953-5.472 6.668c-1.125 2.715-1.419 5.702-0.845 8.584s1.988 5.529 4.066 7.607 4.725 3.493 7.607 4.066c2.882 0.573 5.869 0.279 8.584-0.846s5.035-3.029 6.668-5.472c1.632-2.443 2.504-5.316 2.504-8.254-0.004-3.939-1.571-7.716-4.356-10.501s-6.562-4.352-10.501-4.356zM14.857 9.143c0-0.303 0.12-0.594 0.335-0.808s0.505-0.335 0.808-0.335 0.594 0.12 0.808 0.335c0.214 0.214 0.335 0.505 0.335 0.808v8c0 0.303-0.12 0.594-0.335 0.808s-0.505 0.335-0.808 0.335-0.594-0.12-0.808-0.335c-0.214-0.214-0.335-0.505-0.335-0.808zM16 24c-0.339 0-0.671-0.101-0.952-0.289s-0.502-0.456-0.631-0.769c-0.13-0.313-0.164-0.658-0.098-0.99s0.229-0.638 0.469-0.878 0.545-0.403 0.878-0.469c0.333-0.066 0.677-0.032 0.99 0.098s0.581 0.349 0.769 0.631c0.188 0.282 0.289 0.613 0.289 0.952 0 0.455-0.181 0.891-0.502 1.212s-0.758 0.502-1.212 0.502z"></path>
</symbol>
<symbol id="icon-bill-paid" viewBox="0 0 32 32">
<path fill="#277c78" style="fill: var(--color2, #277c78)" d="M16 1.143c-2.938 0-5.811 0.871-8.254 2.504s-4.348 3.953-5.472 6.668c-1.125 2.715-1.419 5.702-0.845 8.584s1.988 5.529 4.066 7.607 4.725 3.493 7.607 4.066c2.882 0.573 5.869 0.279 8.584-0.846s5.035-3.029 6.668-5.472c1.632-2.443 2.504-5.316 2.504-8.254-0.004-3.939-1.571-7.716-4.356-10.501s-6.562-4.352-10.501-4.356zM22.523 13.38l-8 8c-0.106 0.106-0.232 0.191-0.371 0.248s-0.287 0.087-0.438 0.087c-0.15 0-0.299-0.030-0.438-0.087s-0.265-0.142-0.371-0.248l-3.429-3.429c-0.214-0.214-0.335-0.505-0.335-0.809s0.12-0.594 0.335-0.809 0.505-0.335 0.809-0.335 0.594 0.12 0.809 0.335l2.62 2.621 7.191-7.193c0.106-0.106 0.232-0.19 0.371-0.248s0.287-0.087 0.438-0.087c0.15 0 0.299 0.030 0.438 0.087s0.265 0.142 0.371 0.248c0.106 0.106 0.19 0.232 0.248 0.371s0.087 0.287 0.087 0.438-0.030 0.299-0.087 0.438c-0.057 0.139-0.142 0.265-0.248 0.371z"></path>
</symbol>
<symbol id="icon-caret-down" viewBox="0 0 64 32">
<path d="M60.554 4.553l-26.667 26.667c-0.248 0.248-0.542 0.445-0.865 0.579s-0.671 0.203-1.021 0.203-0.697-0.069-1.021-0.203-0.618-0.331-0.866-0.579l-26.667-26.667c-0.373-0.373-0.628-0.848-0.731-1.366s-0.050-1.054 0.152-1.542c0.202-0.488 0.544-0.904 0.983-1.197s0.955-0.449 1.483-0.449h53.333c0.528-0 1.044 0.156 1.483 0.449s0.781 0.71 0.983 1.197c0.202 0.488 0.255 1.024 0.152 1.542s-0.357 0.993-0.731 1.366z"></path>
</symbol>
<symbol id="icon-caret-left" viewBox="0 0 17 32">
<path fill="#696868" style="fill: var(--color3, #696868)" d="M14.972 31.574l-14.545-14.545c-0.135-0.135-0.243-0.296-0.316-0.472s-0.111-0.366-0.111-0.557c0-0.191 0.038-0.38 0.111-0.557s0.18-0.337 0.316-0.472l14.545-14.545c0.203-0.204 0.463-0.342 0.745-0.399s0.575-0.027 0.841 0.083c0.266 0.11 0.493 0.297 0.653 0.536s0.245 0.521 0.245 0.809v29.091c0 0.288-0.085 0.569-0.245 0.809s-0.387 0.426-0.653 0.536-0.559 0.139-0.841 0.083c-0.282-0.056-0.542-0.195-0.745-0.399z"></path>
</symbol>
<symbol id="icon-caret-right" viewBox="0 0 17 32">
<path fill="#696868" style="fill: var(--color3, #696868)" d="M2.483 0.426l14.545 14.545c0.135 0.135 0.242 0.296 0.316 0.472s0.111 0.366 0.111 0.557c0 0.191-0.038 0.38-0.111 0.557s-0.18 0.337-0.316 0.472l-14.545 14.546c-0.203 0.204-0.463 0.342-0.745 0.399s-0.575 0.027-0.841-0.083c-0.266-0.11-0.493-0.297-0.653-0.536s-0.245-0.521-0.245-0.809v-29.091c-0-0.288 0.085-0.569 0.245-0.809s0.387-0.426 0.653-0.536c0.266-0.11 0.559-0.139 0.841-0.083s0.542 0.195 0.745 0.399z"></path>
</symbol>
<symbol id="icon-close-modal" viewBox="0 0 32 32">
<path fill="#696868" style="fill: var(--color3, #696868)" d="M21.575 11.729l-4.271 4.271 4.271 4.271c0.091 0.085 0.163 0.186 0.214 0.3s0.078 0.235 0.080 0.359-0.021 0.247-0.067 0.362-0.115 0.219-0.203 0.307c-0.088 0.088-0.192 0.157-0.307 0.203s-0.238 0.069-0.362 0.067-0.246-0.029-0.359-0.080-0.215-0.123-0.3-0.214l-4.271-4.271-4.271 4.271c-0.175 0.163-0.406 0.252-0.646 0.248s-0.467-0.101-0.636-0.27-0.266-0.397-0.27-0.636 0.085-0.471 0.248-0.646l4.271-4.271-4.271-4.271c-0.163-0.175-0.252-0.406-0.248-0.646s0.101-0.467 0.27-0.636c0.169-0.169 0.397-0.266 0.636-0.27s0.471 0.085 0.646 0.248l4.271 4.271 4.271-4.271c0.175-0.163 0.406-0.252 0.646-0.248s0.467 0.101 0.636 0.27 0.266 0.397 0.27 0.636-0.085 0.471-0.248 0.646zM31.692 16c0 3.104-0.92 6.138-2.645 8.718s-4.175 4.592-7.042 5.78c-2.867 1.188-6.023 1.498-9.067 0.893s-5.84-2.1-8.035-4.295-3.689-4.991-4.295-8.035c-0.606-3.044-0.295-6.199 0.893-9.067s3.199-5.318 5.78-7.043 5.615-2.645 8.718-2.645c4.16 0.005 8.149 1.66 11.091 4.602s4.597 6.93 4.602 11.091zM29.846 16c0-2.738-0.812-5.416-2.334-7.693s-3.684-4.052-6.214-5.1-5.314-1.322-8-0.788c-2.686 0.534-5.153 1.853-7.089 3.789s-3.255 4.404-3.789 7.089c-0.534 2.686-0.26 5.47 0.788 8s2.823 4.693 5.1 6.214c2.277 1.521 4.954 2.334 7.693 2.334 3.671-0.004 7.19-1.464 9.786-4.060s4.056-6.115 4.060-9.786z"></path>
</symbol>
<symbol id="icon-ellipsis" viewBox="0 0 112 32">
<path fill="#b3b3b3" style="fill: var(--color4, #b3b3b3)" d="M70 16c0 2.769-0.821 5.476-2.359 7.778s-3.725 4.097-6.283 5.156-5.373 1.337-8.089 0.797c-2.716-0.54-5.21-1.874-7.168-3.831s-3.291-4.453-3.831-7.168c-0.54-2.716-0.263-5.531 0.797-8.089s2.854-4.745 5.156-6.283c2.302-1.538 5.009-2.359 7.778-2.359 3.713 0 7.274 1.475 9.9 4.101s4.1 6.186 4.1 9.899zM16 2c-2.769 0-5.476 0.821-7.778 2.359s-4.097 3.725-5.156 6.283-1.337 5.373-0.797 8.089c0.54 2.716 1.874 5.21 3.832 7.168s4.453 3.291 7.168 3.831c2.716 0.54 5.531 0.263 8.089-0.797s4.745-2.854 6.283-5.156c1.538-2.302 2.359-5.009 2.359-7.778 0-3.713-1.475-7.274-4.1-9.899s-6.186-4.101-9.9-4.101zM96 2c-2.769 0-5.476 0.821-7.778 2.359s-4.097 3.725-5.157 6.283c-1.059 2.558-1.337 5.373-0.797 8.089s1.874 5.21 3.832 7.168c1.958 1.958 4.452 3.291 7.168 3.831s5.53 0.263 8.089-0.797 4.745-2.854 6.283-5.156c1.538-2.302 2.359-5.009 2.359-7.778 0-1.838-0.362-3.659-1.066-5.358s-1.735-3.242-3.035-4.542-2.843-2.331-4.542-3.035c-1.698-0.704-3.519-1.066-5.358-1.066z"></path>
</symbol>
<symbol id="icon-filter-mobile" viewBox="0 0 36 32">
<path d="M33.595 5.431l-0.012 0.014-10.583 11.3v8.67c0.001 0.412-0.101 0.818-0.295 1.182s-0.476 0.674-0.819 0.902l-5 3.334c-0.377 0.251-0.815 0.395-1.267 0.416s-0.902-0.080-1.301-0.294-0.732-0.532-0.964-0.921-0.354-0.833-0.354-1.286v-12.005l-10.595-11.314c-0.325-0.358-0.54-0.803-0.617-1.281s-0.015-0.967 0.18-1.41c0.195-0.443 0.515-0.819 0.92-1.084s0.878-0.406 1.362-0.407h27.5c0.484 0 0.958 0.141 1.364 0.405s0.726 0.641 0.922 1.083c0.196 0.443 0.259 0.933 0.182 1.411s-0.292 0.923-0.618 1.282z"></path>
</symbol>
<symbol id="icon-hide-password" viewBox="0 0 43 32">
<path d="M16.113 4.312c-0.079-0.086-0.133-0.192-0.159-0.306s-0.020-0.233 0.015-0.344c0.035-0.111 0.099-0.212 0.185-0.291s0.191-0.134 0.305-0.16c1.599-0.366 3.234-0.548 4.873-0.545 5.813 0 11.095 2.21 15.277 6.392 3.138 3.138 4.55 6.27 4.609 6.402 0.076 0.171 0.115 0.355 0.115 0.542s-0.039 0.371-0.115 0.542c-0.058 0.132-1.47 3.262-4.609 6.4-0.475 0.473-0.964 0.922-1.465 1.345-0.132 0.112-0.302 0.168-0.475 0.157s-0.334-0.089-0.45-0.217zM35.653 29.77c0.12 0.129 0.214 0.281 0.275 0.446s0.089 0.342 0.082 0.518-0.050 0.349-0.125 0.509c-0.075 0.16-0.18 0.303-0.311 0.422s-0.283 0.21-0.45 0.27-0.343 0.085-0.519 0.075c-0.176-0.010-0.349-0.054-0.508-0.13s-0.301-0.184-0.418-0.316l-3.68-4.042c-2.729 1.207-5.682 1.825-8.667 1.812-5.813 0-11.095-2.21-15.277-6.39-3.138-3.138-4.557-6.268-4.608-6.4-0.076-0.171-0.115-0.355-0.115-0.542s0.039-0.371 0.115-0.542c0.052-0.127 1.47-3.263 4.608-6.402 1.254-1.26 2.652-2.366 4.167-3.297l-3.21-3.532c-0.12-0.129-0.214-0.281-0.275-0.446s-0.089-0.342-0.082-0.518c0.007-0.176 0.050-0.349 0.124-0.509s0.18-0.303 0.311-0.422c0.131-0.119 0.283-0.21 0.45-0.269s0.343-0.085 0.519-0.075c0.176 0.009 0.349 0.054 0.508 0.131s0.301 0.184 0.418 0.316zM24.738 21.728l-8.782-9.667c-0.905 1.24-1.354 2.754-1.272 4.287s0.691 2.99 1.723 4.126c1.032 1.136 2.425 1.881 3.942 2.11s3.068-0.074 4.389-0.856z"></path>
</symbol>
<symbol id="icon-minimize-menu" viewBox="0 0 32 32">
<path  d="M22.4 8.416v14.4c0 0.318-0.126 0.624-0.352 0.849s-0.53 0.351-0.848 0.351h-3.6v6c0 0.237-0.070 0.47-0.202 0.667s-0.319 0.352-0.539 0.442-0.461 0.115-0.694 0.068c-0.233-0.046-0.447-0.161-0.615-0.329l-14.4-14.4c-0.112-0.111-0.2-0.244-0.26-0.389s-0.091-0.302-0.091-0.46 0.031-0.314 0.091-0.46 0.149-0.278 0.26-0.389l14.4-14.4c0.168-0.168 0.382-0.282 0.615-0.329s0.474-0.023 0.694 0.068 0.407 0.245 0.539 0.442 0.202 0.43 0.202 0.667v6h3.6c0.318 0 0.624 0.126 0.848 0.351s0.352 0.53 0.352 0.849zM26 7.216c-0.318 0-0.624 0.126-0.848 0.351s-0.352 0.53-0.352 0.849v14.4c0 0.318 0.126 0.624 0.352 0.849s0.53 0.351 0.848 0.351 0.624-0.126 0.848-0.351c0.225-0.225 0.352-0.53 0.352-0.849v-14.4c0-0.318-0.126-0.623-0.352-0.849s-0.53-0.351-0.848-0.351zM30.8 7.216c-0.318 0-0.624 0.126-0.848 0.351s-0.352 0.53-0.352 0.849v14.4c0 0.318 0.126 0.624 0.352 0.849s0.53 0.351 0.848 0.351 0.624-0.126 0.848-0.351c0.225-0.225 0.352-0.53 0.352-0.849v-14.4c0-0.318-0.126-0.623-0.352-0.849s-0.53-0.351-0.848-0.351z"></path>
</symbol>
<symbol id="icon-nav-budgets" viewBox="0 0 32 32">
<path  d="M0.513 13.747c0.354-2.971 1.57-5.774 3.497-8.064 0.213-0.257 0.478-0.467 0.777-0.616s0.626-0.234 0.959-0.25c0.334-0.016 0.667 0.039 0.978 0.159s0.594 0.305 0.83 0.541l4.151 4.239c0.4 0.399 0.645 0.927 0.691 1.489s-0.109 1.124-0.438 1.583c-0.249 0.353-0.437 0.746-0.555 1.162-0.038 0.123-0.113 0.23-0.217 0.307s-0.228 0.118-0.356 0.118h-9.72c-0.085 0-0.168-0.018-0.246-0.052s-0.146-0.085-0.203-0.148c-0.056-0.063-0.099-0.138-0.124-0.218s-0.034-0.166-0.024-0.25zM17.409 0.025c-0.332-0.029-0.665 0.011-0.98 0.118s-0.604 0.278-0.85 0.503c-0.245 0.225-0.441 0.498-0.575 0.803s-0.203 0.634-0.203 0.966v6.101c-0.004 0.566 0.194 1.115 0.558 1.548s0.871 0.723 1.43 0.816c1.051 0.173 2.015 0.692 2.739 1.473s1.168 1.782 1.261 2.844-0.17 2.124-0.747 3.019c-0.577 0.896-1.436 1.574-2.442 1.927-0.117 0.043-0.218 0.121-0.289 0.223s-0.11 0.224-0.11 0.348v9.784c-0.001 0.085 0.017 0.169 0.051 0.247s0.085 0.147 0.148 0.204c0.063 0.057 0.138 0.099 0.219 0.125s0.166 0.034 0.251 0.024c3.744-0.462 7.195-2.261 9.718-5.065s3.948-6.426 4.013-10.197c0.112-8.143-6.122-15.090-14.192-15.813zM14.388 20.14c-0.671-0.239-1.28-0.625-1.783-1.129s-0.888-1.113-1.127-1.784c-0.041-0.119-0.118-0.222-0.22-0.296s-0.224-0.114-0.35-0.115h-9.8c-0.085-0-0.169 0.017-0.246 0.051s-0.147 0.085-0.204 0.148c-0.057 0.063-0.099 0.137-0.125 0.218s-0.034 0.166-0.025 0.25c0.42 3.467 1.991 6.693 4.46 9.163s5.696 4.040 9.163 4.46c0.084 0.009 0.17 0.001 0.25-0.025s0.155-0.068 0.218-0.125c0.063-0.057 0.113-0.126 0.148-0.204s0.052-0.161 0.051-0.246v-9.791c0-0.127-0.039-0.251-0.113-0.354s-0.178-0.181-0.298-0.222z"></path>
</symbol>
<symbol id="icon-nav-overview" viewBox="0 0 30 32">
<path d="M30.316 14.472v14.597c0 0.67-0.266 1.313-0.74 1.786s-1.116 0.74-1.786 0.74h-6.316c-0.67 0-1.313-0.266-1.786-0.74s-0.74-1.116-0.74-1.786v-6.316c0-0.335-0.133-0.656-0.37-0.893s-0.558-0.37-0.893-0.37h-5.053c-0.335 0-0.656 0.133-0.893 0.37s-0.37 0.558-0.37 0.893v6.316c0 0.67-0.266 1.313-0.74 1.786s-1.116 0.74-1.786 0.74h-6.316c-0.67 0-1.313-0.266-1.786-0.74s-0.74-1.116-0.74-1.786v-14.597c-0-0.35 0.072-0.695 0.213-1.016s0.346-0.608 0.603-0.844l12.649-11.935c0.465-0.423 1.071-0.657 1.7-0.657s1.235 0.234 1.7 0.657c0.005 0.006 0.011 0.012 0.017 0.017l12.632 11.918c0.255 0.238 0.458 0.526 0.596 0.846s0.208 0.665 0.206 1.014z"></path>
</symbol>
<symbol id="icon-nav-pots" viewBox="0 0 26 32">
<path fill="#b3b3b3" style="fill: var(--color4, #b3b3b3)" d="M20.727 4.852v-2.292c0-0.579-0.23-1.134-0.639-1.543s-0.964-0.639-1.543-0.639h-10.909c-0.579 0-1.134 0.23-1.543 0.639s-0.639 0.964-0.639 1.543v2.292c-1.231 0.253-2.338 0.922-3.133 1.896s-1.23 2.191-1.231 3.448v15.273c0 1.447 0.575 2.834 1.598 3.857s2.41 1.598 3.857 1.598h13.091c1.447 0 2.834-0.575 3.857-1.598s1.598-2.41 1.598-3.857v-15.273c-0.001-1.257-0.436-2.475-1.231-3.448s-1.901-1.643-3.133-1.896zM12 2.56h2.182v2.182h-2.182zM7.636 2.56h2.182v2.182h-2.182zM14.182 23.287v1.091c0 0.289-0.115 0.567-0.32 0.771s-0.482 0.32-0.771 0.32-0.567-0.115-0.771-0.32c-0.205-0.204-0.32-0.482-0.32-0.771v-1.091h-1.091c-0.289 0-0.567-0.115-0.771-0.32s-0.32-0.482-0.32-0.771 0.115-0.567 0.32-0.771c0.205-0.205 0.482-0.32 0.771-0.32h3.273c0.289 0 0.567-0.115 0.771-0.32s0.32-0.482 0.32-0.771-0.115-0.567-0.32-0.771c-0.204-0.205-0.482-0.32-0.771-0.32h-2.182c-0.868 0-1.7-0.345-2.314-0.959s-0.959-1.446-0.959-2.314 0.345-1.7 0.959-2.314 1.446-0.959 2.314-0.959v-1.091c0-0.289 0.115-0.567 0.32-0.771s0.482-0.32 0.771-0.32 0.567 0.115 0.771 0.32 0.32 0.482 0.32 0.771v1.091h1.091c0.289 0 0.567 0.115 0.771 0.32s0.32 0.482 0.32 0.771-0.115 0.567-0.32 0.771c-0.204 0.205-0.482 0.319-0.771 0.319h-3.273c-0.289 0-0.567 0.115-0.771 0.32s-0.32 0.482-0.32 0.771 0.115 0.567 0.32 0.771c0.205 0.205 0.482 0.32 0.771 0.32h2.182c0.868 0 1.7 0.345 2.314 0.959s0.959 1.446 0.959 2.314-0.345 1.7-0.959 2.314c-0.614 0.614-1.446 0.959-2.314 0.959zM18.545 4.742h-2.182v-2.182h2.182z"></path>
</symbol>
<symbol id="icon-nav-recurring-bills" viewBox="0 0 38 32">
<path  d="M34.353 0.96h-31.059c-0.749 0-1.467 0.297-1.997 0.827s-0.827 1.248-0.827 1.997v26.823c0 0.241 0.062 0.477 0.179 0.687s0.286 0.387 0.491 0.513c0.205 0.126 0.438 0.198 0.679 0.209s0.479-0.040 0.695-0.148l5.015-2.508 5.015 2.508c0.196 0.098 0.412 0.149 0.632 0.149s0.436-0.051 0.632-0.149l5.015-2.508 5.015 2.508c0.196 0.098 0.412 0.149 0.632 0.149s0.436-0.051 0.632-0.149l5.015-2.508 5.015 2.508c0.215 0.108 0.454 0.159 0.695 0.148s0.474-0.083 0.679-0.209c0.205-0.127 0.374-0.303 0.491-0.513s0.179-0.447 0.179-0.687v-26.823c0-0.749-0.297-1.467-0.827-1.997s-1.248-0.827-1.997-0.827zM27.294 19.313h-16.941c-0.374 0-0.733-0.149-0.998-0.414s-0.414-0.624-0.414-0.998 0.149-0.733 0.413-0.998 0.624-0.413 0.998-0.413h16.941c0.374 0 0.734 0.149 0.998 0.413s0.414 0.624 0.414 0.998-0.149 0.733-0.414 0.998c-0.265 0.265-0.624 0.414-0.998 0.414zM27.294 13.666h-16.941c-0.374 0-0.733-0.149-0.998-0.414s-0.414-0.624-0.414-0.998 0.149-0.733 0.413-0.998 0.624-0.413 0.998-0.413h16.941c0.374 0 0.734 0.149 0.998 0.413s0.414 0.624 0.414 0.998-0.149 0.733-0.414 0.998c-0.265 0.265-0.624 0.413-0.998 0.413z"></path>
</symbol>
<symbol id="icon-nav-transactions" viewBox="0 0 32 32">
<path  d="M14.565 23.063c0.101 0.244 0.128 0.512 0.076 0.77s-0.178 0.496-0.365 0.683l-5.333 5.333c-0.124 0.124-0.271 0.222-0.433 0.289s-0.335 0.102-0.511 0.102-0.349-0.035-0.511-0.102c-0.162-0.067-0.309-0.165-0.433-0.289l-5.333-5.333c-0.187-0.186-0.314-0.424-0.365-0.683s-0.025-0.527 0.076-0.771c0.101-0.244 0.272-0.452 0.492-0.599s0.477-0.225 0.741-0.224h4v-20c0-0.354 0.14-0.693 0.391-0.943s0.589-0.391 0.943-0.391c0.354 0 0.693 0.14 0.943 0.391s0.391 0.589 0.391 0.943v20h4c0.264 0 0.521 0.078 0.741 0.225s0.39 0.355 0.491 0.598zM30.277 6.63l-5.333-5.333c-0.124-0.124-0.271-0.222-0.433-0.289s-0.335-0.102-0.511-0.102-0.349 0.035-0.511 0.102c-0.162 0.067-0.309 0.165-0.433 0.289l-5.333 5.333c-0.187 0.186-0.314 0.424-0.365 0.683s-0.025 0.527 0.076 0.771c0.101 0.244 0.272 0.452 0.491 0.599s0.477 0.225 0.741 0.224h4v20c0 0.354 0.14 0.693 0.391 0.943s0.589 0.391 0.943 0.391 0.693-0.14 0.943-0.391c0.25-0.25 0.391-0.589 0.391-0.943v-20h4c0.264 0 0.522-0.078 0.741-0.224s0.391-0.355 0.492-0.599 0.127-0.512 0.076-0.771c-0.051-0.259-0.179-0.496-0.365-0.683z"></path>
</symbol>
<symbol id="icon-pot" viewBox="0 0 25 32">
<path fill="#277c78" style="fill: var(--color2, #277c78)" d="M19.944 5.233v-2.567c0-0.516-0.205-1.010-0.57-1.375s-0.859-0.57-1.375-0.57h-11.111c-0.516 0-1.010 0.205-1.375 0.57s-0.569 0.859-0.569 1.375v2.567c-1.239 0.2-2.366 0.833-3.181 1.788s-1.262 2.168-1.264 3.423v15.556c0 1.4 0.556 2.742 1.546 3.732s2.332 1.546 3.732 1.546h13.333c1.4 0 2.742-0.556 3.732-1.546s1.546-2.332 1.546-3.732v-15.556c-0.002-1.255-0.45-2.468-1.264-3.423s-1.942-1.589-3.181-1.788zM18.278 2.667v2.5h-2.778v-2.778h2.5c0.074 0 0.144 0.029 0.196 0.081s0.081 0.123 0.081 0.196zM11.056 5.167v-2.778h2.778v2.778zM6.889 2.389h2.5v2.778h-2.778v-2.5c0-0.074 0.029-0.144 0.081-0.196s0.123-0.081 0.196-0.081zM22.722 26c0 0.474-0.093 0.944-0.275 1.382s-0.447 0.836-0.783 1.171c-0.335 0.335-0.733 0.601-1.171 0.783s-0.908 0.275-1.382 0.275h-13.333c-0.474 0-0.944-0.093-1.382-0.275s-0.836-0.447-1.172-0.783c-0.335-0.335-0.601-0.733-0.783-1.171s-0.275-0.908-0.275-1.382v-15.556c0-0.958 0.38-1.876 1.058-2.553s1.596-1.058 2.553-1.058h13.333c0.958 0 1.876 0.38 2.553 1.058s1.058 1.596 1.058 2.553zM16.611 20.444c0 0.81-0.322 1.588-0.895 2.161s-1.35 0.895-2.161 0.895h-0.278v1.389c0 0.221-0.088 0.433-0.244 0.589s-0.368 0.244-0.589 0.244-0.433-0.088-0.589-0.244-0.244-0.368-0.244-0.589v-1.389h-1.389c-0.221 0-0.433-0.088-0.589-0.244s-0.244-0.368-0.244-0.589 0.088-0.433 0.244-0.589 0.368-0.244 0.589-0.244h3.333c0.368 0 0.722-0.146 0.982-0.407s0.407-0.614 0.407-0.982-0.146-0.722-0.407-0.982c-0.261-0.26-0.614-0.407-0.982-0.407h-2.222c-0.81 0-1.588-0.322-2.161-0.895s-0.895-1.35-0.895-2.161 0.322-1.588 0.895-2.161c0.573-0.573 1.35-0.895 2.161-0.895h0.278v-1.389c0-0.221 0.088-0.433 0.244-0.589s0.368-0.244 0.589-0.244 0.433 0.088 0.589 0.244 0.244 0.368 0.244 0.589v1.389h1.389c0.221 0 0.433 0.088 0.589 0.244s0.244 0.368 0.244 0.589-0.088 0.433-0.244 0.589-0.368 0.244-0.589 0.244h-3.333c-0.368 0-0.722 0.146-0.982 0.407s-0.407 0.614-0.407 0.982 0.146 0.722 0.407 0.982c0.261 0.26 0.614 0.407 0.982 0.407h2.222c0.81 0 1.588 0.322 2.161 0.895s0.895 1.35 0.895 2.161z"></path>
</symbol>
<symbol id="icon-recurring-bills" viewBox="0 0 37 32">
<path fill="#fff" style="fill: var(--color5, #fff)" d="M27.929 11.714c0 0.284-0.113 0.557-0.314 0.758s-0.474 0.314-0.758 0.314h-17.143c-0.284 0-0.557-0.113-0.758-0.314s-0.314-0.473-0.314-0.758 0.113-0.557 0.314-0.758c0.201-0.201 0.473-0.314 0.758-0.314h17.143c0.284 0 0.557 0.113 0.758 0.314s0.314 0.473 0.314 0.758zM26.857 16.357h-17.143c-0.284 0-0.557 0.113-0.758 0.314s-0.314 0.474-0.314 0.758 0.113 0.557 0.314 0.758c0.201 0.201 0.473 0.314 0.758 0.314h17.143c0.284 0 0.557-0.113 0.758-0.314s0.314-0.474 0.314-0.758-0.113-0.557-0.314-0.758-0.474-0.314-0.758-0.314zM36.5 3.143v27.143c-0 0.183-0.047 0.362-0.136 0.521s-0.217 0.293-0.373 0.389c-0.169 0.105-0.364 0.161-0.563 0.161-0.166 0-0.33-0.038-0.478-0.112l-5.236-2.618-5.236 2.618c-0.149 0.074-0.312 0.113-0.479 0.113s-0.33-0.039-0.479-0.113l-5.236-2.618-5.236 2.618c-0.149 0.074-0.312 0.113-0.479 0.113s-0.33-0.039-0.479-0.113l-5.236-2.618-5.236 2.618c-0.163 0.081-0.345 0.12-0.527 0.112s-0.36-0.063-0.515-0.159c-0.155-0.096-0.283-0.23-0.372-0.39s-0.135-0.339-0.135-0.522v-27.143c0-0.663 0.263-1.299 0.732-1.768s1.105-0.732 1.768-0.732h31.429c0.663 0 1.299 0.263 1.768 0.732s0.732 1.105 0.732 1.768zM34.357 3.143c0-0.095-0.038-0.186-0.105-0.253s-0.158-0.105-0.253-0.105h-31.429c-0.095 0-0.186 0.038-0.253 0.105s-0.105 0.158-0.105 0.253v25.409l4.164-2.082c0.149-0.074 0.312-0.113 0.479-0.113s0.33 0.039 0.479 0.113l5.236 2.618 5.236-2.618c0.149-0.074 0.312-0.113 0.479-0.113s0.33 0.039 0.479 0.113l5.236 2.618 5.236-2.618c0.149-0.074 0.312-0.113 0.479-0.113s0.33 0.039 0.479 0.113l4.164 2.082z"></path>
</symbol>
<symbol id="icon-search" viewBox="0 0 32 32">
<path d="M30.523 30.048l-7.153-7.151c2.073-2.489 3.107-5.681 2.886-8.913s-1.679-6.254-4.071-8.438-5.534-3.362-8.773-3.288c-3.238 0.074-6.324 1.393-8.614 3.683s-3.61 5.376-3.683 8.614c-0.074 3.238 1.104 6.381 3.288 8.773s5.206 3.85 8.438 4.071c3.232 0.221 6.424-0.813 8.913-2.886l7.151 7.153c0.106 0.106 0.232 0.19 0.371 0.248s0.287 0.087 0.438 0.087 0.299-0.030 0.438-0.087c0.139-0.058 0.265-0.142 0.371-0.248s0.19-0.232 0.248-0.371c0.058-0.139 0.087-0.287 0.087-0.438s-0.029-0.299-0.087-0.438c-0.057-0.139-0.142-0.265-0.248-0.371zM3.429 14.857c0-2.034 0.603-4.023 1.733-5.714s2.737-3.010 4.616-3.788c1.879-0.779 3.948-0.982 5.943-0.585s3.828 1.376 5.266 2.815 2.418 3.271 2.815 5.266c0.397 1.995 0.193 4.063-0.585 5.943s-2.097 3.486-3.788 4.616c-1.691 1.13-3.68 1.733-5.714 1.733-2.727-0.003-5.341-1.088-7.27-3.016s-3.013-4.543-3.016-7.27z"></path>
</symbol>
<symbol id="icon-selected" viewBox="0 0 32 32">
<path fill="#277c78" style="fill: var(--color2, #277c78)" d="M16 1.143c-2.938 0-5.811 0.871-8.254 2.504s-4.348 3.953-5.472 6.668c-1.125 2.715-1.419 5.702-0.845 8.584s1.988 5.529 4.066 7.607 4.725 3.493 7.607 4.066c2.882 0.573 5.869 0.279 8.584-0.846s5.035-3.029 6.668-5.472c1.632-2.443 2.504-5.316 2.504-8.254-0.004-3.939-1.571-7.716-4.356-10.501s-6.562-4.352-10.501-4.356zM22.523 13.38l-8 8c-0.106 0.106-0.232 0.191-0.371 0.248s-0.287 0.087-0.438 0.087c-0.15 0-0.299-0.030-0.438-0.087s-0.265-0.142-0.371-0.248l-3.429-3.429c-0.214-0.214-0.335-0.505-0.335-0.809s0.12-0.594 0.335-0.809 0.505-0.335 0.809-0.335 0.594 0.12 0.809 0.335l2.62 2.621 7.191-7.193c0.106-0.106 0.232-0.19 0.371-0.248s0.287-0.087 0.438-0.087c0.15 0 0.299 0.030 0.438 0.087s0.265 0.142 0.371 0.248c0.106 0.106 0.19 0.232 0.248 0.371s0.087 0.287 0.087 0.438-0.030 0.299-0.087 0.438c-0.057 0.139-0.142 0.265-0.248 0.371z"></path>
</symbol>
<symbol id="icon-show-password" viewBox="0 0 51 32">
<path d="M49.462 15.352c-0.070-0.158-1.764-3.916-5.53-7.682-5.018-5.018-11.356-7.67-18.332-7.67s-13.314 2.652-18.332 7.67c-3.766 3.766-5.468 7.53-5.53 7.682-0.091 0.205-0.138 0.426-0.138 0.65s0.047 0.445 0.138 0.65c0.070 0.158 1.764 3.914 5.53 7.68 5.018 5.016 11.356 7.668 18.332 7.668s13.314-2.652 18.332-7.668c3.766-3.766 5.46-7.522 5.53-7.68 0.091-0.205 0.138-0.426 0.138-0.65s-0.047-0.445-0.138-0.65zM25.6 24c-1.582 0-3.129-0.469-4.445-1.348s-2.341-2.128-2.946-3.59c-0.605-1.462-0.764-3.070-0.455-4.622s1.071-2.977 2.189-4.096 2.544-1.881 4.096-2.189c1.552-0.309 3.16-0.15 4.622 0.455s2.711 1.631 3.59 2.946c0.879 1.316 1.348 2.862 1.348 4.445 0 2.122-0.843 4.157-2.343 5.657s-3.535 2.343-5.657 2.343z"></path>
</symbol>
<symbol id="icon-sort-mobile" viewBox="0 0 34 32">
<path d="M30.4 0h-26.667c-0.707 0-1.385 0.281-1.886 0.781s-0.781 1.178-0.781 1.886v26.667c0 0.707 0.281 1.386 0.781 1.886s1.178 0.781 1.886 0.781h26.667c0.707 0 1.386-0.281 1.886-0.781s0.781-1.178 0.781-1.886v-26.667c0-0.707-0.281-1.386-0.781-1.886s-1.178-0.781-1.886-0.781zM7.733 6.667h16c0.354 0 0.693 0.14 0.943 0.391s0.391 0.589 0.391 0.943-0.14 0.693-0.391 0.943c-0.25 0.25-0.589 0.391-0.943 0.391h-16c-0.354 0-0.693-0.14-0.943-0.391s-0.391-0.589-0.391-0.943 0.14-0.693 0.391-0.943 0.589-0.391 0.943-0.391zM14.4 25.333h-6.667c-0.354 0-0.693-0.14-0.943-0.391s-0.391-0.589-0.391-0.943 0.14-0.693 0.391-0.943c0.25-0.25 0.589-0.391 0.943-0.391h6.667c0.354 0 0.693 0.14 0.943 0.391s0.391 0.589 0.391 0.943-0.14 0.693-0.391 0.943c-0.25 0.25-0.589 0.391-0.943 0.391zM15.733 17.333h-8c-0.354 0-0.693-0.14-0.943-0.391s-0.391-0.589-0.391-0.943 0.14-0.693 0.391-0.943 0.589-0.391 0.943-0.391h8c0.354 0 0.693 0.14 0.943 0.391s0.391 0.589 0.391 0.943-0.14 0.693-0.391 0.943-0.589 0.391-0.943 0.391zM28.677 22.277l-4 4c-0.124 0.124-0.271 0.222-0.433 0.29s-0.335 0.102-0.511 0.102-0.349-0.035-0.511-0.102c-0.162-0.067-0.309-0.166-0.433-0.29l-4-4c-0.25-0.25-0.391-0.589-0.391-0.943s0.141-0.693 0.391-0.943 0.59-0.391 0.943-0.391 0.693 0.141 0.943 0.391l1.723 1.725v-7.448c0-0.354 0.14-0.693 0.391-0.943s0.589-0.391 0.943-0.391 0.693 0.14 0.943 0.391c0.25 0.25 0.391 0.589 0.391 0.943v7.448l1.723-1.725c0.25-0.25 0.589-0.391 0.943-0.391s0.693 0.141 0.943 0.391c0.25 0.25 0.391 0.59 0.391 0.943s-0.14 0.693-0.391 0.943z"></path>
</symbol>
<symbol id="icon-illustration-authentication" viewBox="0 0 19 32">
<path fill="#201f24" style="fill: var(--color6, #201f24)" d="M0 0h19.478v32h-19.478z"></path>
<path fill="#f2cdac" style="fill: var(--color7, #f2cdac)" d="M11.409 4.33l19.93-11.809v6.28l-17.357 6.242z"></path>
<path fill="#626070" style="fill: var(--color8, #626070)" d="M7.339 4.167l7.635-11.089 6.382 4.144-11.861 7.543z"></path>
<path fill="#f8f4f0" style="fill: var(--color9, #f8f4f0)" d="M14.947 9.41c-0.924 0.946-1.595 1.342-1.595 1.342l0.168 0.239s0.924-0.74 1.428-1.314z"></path>
<path fill="#101720" style="fill: var(--color10, #101720)" d="M13.52 11.013s-0.011 0-0.011-0.006l-0.168-0.239s0-0.006 0-0.011 0-0.006 0.006-0.011c0.006 0 0.677-0.406 1.59-1.342 0 0 0.011-0.006 0.017 0 0.006 0 0.011 0.011 0.011 0.017v0.278c-0.498 0.573-1.422 1.314-1.428 1.319 0 0-0.006 0-0.011 0zM13.38 10.757l0.146 0.212c0.118-0.095 0.941-0.768 1.405-1.297v-0.217c-0.829 0.835-1.45 1.241-1.551 1.308z"></path>
<path fill="#f8f4f0" style="fill: var(--color9, #f8f4f0)" d="M12.641 9.666c-0.924 0.946-1.595 1.342-1.595 1.342l0.168 0.239s0.924-0.74 1.428-1.314z"></path>
<path fill="#101720" style="fill: var(--color10, #101720)" d="M11.213 11.264s-0.011 0-0.011-0.006l-0.168-0.239s0-0.006 0-0.011 0-0.006 0.006-0.011c0.006 0 0.677-0.406 1.59-1.342 0 0 0.011-0.006 0.017 0 0.006 0 0.011 0.011 0.011 0.017v0.278c-0.498 0.573-1.422 1.314-1.428 1.319 0 0-0.006 0-0.011 0zM11.073 11.013l0.146 0.212c0.118-0.095 0.941-0.768 1.405-1.297v-0.217c-0.829 0.835-1.45 1.241-1.551 1.308z"></path>
<path fill="#82c9d7" style="fill: var(--color11, #82c9d7)" d="M16.106 13.863s-0.89-0.935-1.444-2.388c-0.341-0.902-0.56-1.998-0.353-3.195 0.537-3.128-0.649-4.854-0.649-4.854l3.975-1.258c2.833 2.867 0.504 5.043 0.941 7.203 0.062 0.306 0.146 0.579 0.241 0.829 0.593 1.52 1.713 2.065 1.713 2.065l-4.423 1.592z"></path>
<path fill="#101720" style="fill: var(--color10, #101720)" d="M16.106 13.88h-0.011c-0.011-0.011-0.901-0.957-1.45-2.394-0.414-1.080-0.532-2.154-0.353-3.201 0.28-1.614 0.090-2.845-0.123-3.596-0.224-0.813-0.521-1.247-0.526-1.247 0 0 0-0.011 0-0.017s0.006-0.011 0.011-0.011l3.975-1.258h0.017c0.84 0.846 1.299 1.715 1.405 2.644 0.095 0.818-0.084 1.587-0.258 2.332-0.179 0.774-0.353 1.503-0.202 2.238 0.056 0.289 0.14 0.568 0.241 0.829 0.582 1.497 1.696 2.054 1.707 2.060 0.006 0 0.011 0.011 0.011 0.017s0 0.011-0.011 0.017l-4.428 1.592s0 0-0.006 0zM13.682 3.431c0.056 0.095 0.313 0.518 0.521 1.241 0.213 0.751 0.403 1.987 0.123 3.607-0.179 1.035-0.062 2.11 0.347 3.184 0.521 1.364 1.344 2.277 1.433 2.377l4.378-1.581c-0.19-0.106-1.159-0.696-1.691-2.060-0.101-0.267-0.185-0.546-0.246-0.835-0.151-0.74 0.022-1.475 0.202-2.255 0.353-1.503 0.717-3.056-1.131-4.938l-3.941 1.247z"></path>
<path fill="#82c9d7" style="fill: var(--color11, #82c9d7)" d="M19.504 12.115l-3.247 1.169c-0.274-0.345-0.773-1.047-1.125-1.959-0.106-0.267-0.196-0.551-0.269-0.857-0.168-0.713-0.19-1.425-0.073-2.11 0.213-1.247 0.196-2.427-0.056-3.507-0.112-0.479-0.252-0.863-0.375-1.141l3.118-0.985c0.532 0.585 0.857 1.169 0.997 1.776 0.202 0.863 0.011 1.659-0.185 2.511-0.185 0.79-0.375 1.609-0.207 2.455 0.011 0.056 0.022 0.106 0.034 0.161 0.062 0.256 0.134 0.495 0.218 0.718 0.112 0.301 0.252 0.568 0.392 0.802 0.246 0.412 0.526 0.729 0.778 0.963z"></path>
<path fill="#101720" style="fill: var(--color10, #101720)" d="M16.257 13.301s-0.011 0-0.011-0.006c-0.269-0.34-0.773-1.041-1.125-1.959-0.112-0.284-0.202-0.573-0.269-0.857-0.168-0.718-0.19-1.431-0.073-2.115 0.213-1.241 0.196-2.422-0.056-3.501-0.090-0.406-0.218-0.785-0.375-1.136v-0.011s0.006-0.006 0.011-0.011l3.118-0.985h0.017c0.532 0.585 0.857 1.169 1.002 1.787 0.202 0.868 0.011 1.67-0.185 2.516v0.028c-0.185 0.785-0.375 1.592-0.207 2.421 0.011 0.050 0.017 0.095 0.028 0.139v0.022c0.062 0.239 0.134 0.484 0.224 0.718 0.106 0.273 0.23 0.534 0.392 0.802 0.218 0.362 0.476 0.685 0.773 0.963 0 0 0.006 0.011 0 0.017s0 0.011-0.011 0.011l-3.247 1.169s0 0-0.006 0zM14.387 3.726c0.151 0.345 0.28 0.729 0.369 1.124 0.252 1.085 0.269 2.266 0.056 3.513-0.118 0.679-0.095 1.386 0.073 2.104 0.067 0.284 0.157 0.573 0.263 0.852 0.353 0.907 0.845 1.603 1.114 1.943l3.208-1.158c-0.285-0.273-0.543-0.596-0.756-0.952-0.157-0.267-0.285-0.529-0.392-0.807-0.090-0.234-0.162-0.479-0.218-0.718v-0.022c-0.017-0.045-0.022-0.089-0.034-0.139-0.168-0.835 0.017-1.648 0.202-2.433v-0.028c0.207-0.841 0.392-1.637 0.19-2.499-0.14-0.607-0.465-1.186-0.985-1.765l-3.090 0.98z"></path>
<path fill="#f2cdac" style="fill: var(--color7, #f2cdac)" d="M20.529 12.271l-4.428 1.592s-0.89-0.935-1.444-2.388l0.476-0.15c0.353 0.913 0.851 1.614 1.125 1.959l3.247-1.169c-0.252-0.239-0.526-0.557-0.778-0.963-0.14-0.239-0.274-0.501-0.392-0.802l0.476-0.145c0.593 1.525 1.719 2.065 1.719 2.065z"></path>
<path fill="#101720" style="fill: var(--color10, #101720)" d="M16.106 13.88h-0.011c-0.011-0.011-0.896-0.952-1.45-2.394 0-0.006 0-0.017 0.011-0.022l0.476-0.145c0.011 0 0.017 0 0.022 0.011 0.353 0.907 0.845 1.603 1.114 1.943l3.208-1.158c-0.285-0.273-0.543-0.596-0.756-0.952-0.157-0.267-0.285-0.529-0.392-0.807v-0.011s0.006-0.006 0.011-0.011l0.476-0.145c0.011 0 0.017 0 0.022 0.011 0.308 0.785 0.756 1.303 1.075 1.598 0.347 0.323 0.627 0.457 0.633 0.462 0.006 0 0.011 0.011 0.011 0.017s0 0.011-0.011 0.017l-4.428 1.592s0 0-0.006 0zM14.678 11.481c0.521 1.353 1.344 2.266 1.428 2.36l4.378-1.575c-0.084-0.045-0.325-0.189-0.605-0.445-0.325-0.295-0.773-0.813-1.080-1.598l-0.442 0.134c0.101 0.267 0.23 0.523 0.381 0.785 0.218 0.362 0.476 0.685 0.773 0.963 0 0 0.006 0.011 0 0.017s0 0.011-0.011 0.011l-3.247 1.169c-0.006 0-0.017 0-0.017-0.006-0.269-0.334-0.767-1.035-1.12-1.948l-0.442 0.134z"></path>
<path fill="#f2cdac" style="fill: var(--color7, #f2cdac)" d="M16.548 9.71c-1.058 0.245-1.931-0.178-1.959-0.941s0.812-1.575 1.87-1.82c1.058-0.245 1.931 0.178 1.959 0.941s-0.812 1.575-1.87 1.82z"></path>
<path fill="#101720" style="fill: var(--color10, #101720)" d="M15.972 9.794c-0.397 0-0.756-0.1-1.013-0.295-0.241-0.184-0.375-0.434-0.381-0.729-0.028-0.768 0.817-1.592 1.881-1.837 0.627-0.145 1.22-0.056 1.596 0.228 0.241 0.184 0.375 0.434 0.381 0.729 0.028 0.768-0.817 1.592-1.881 1.837-0.202 0.045-0.397 0.067-0.582 0.067zM17.041 6.899c-0.185 0-0.381 0.022-0.577 0.067-1.047 0.239-1.881 1.047-1.853 1.804 0.011 0.284 0.14 0.523 0.369 0.701 0.364 0.278 0.952 0.362 1.568 0.223 1.047-0.239 1.881-1.047 1.853-1.804-0.011-0.284-0.14-0.523-0.369-0.701-0.252-0.189-0.599-0.29-0.991-0.29z"></path>
<path fill="#101720" style="fill: var(--color10, #101720)" d="M18.054 4.161c-0.006 0-0.011 0-0.017-0.011-0.235-0.679-0.834-1.28-0.84-1.286s-0.006-0.017 0-0.022c0.006-0.006 0.017-0.006 0.022 0s0.61 0.612 0.845 1.297c0 0.011 0 0.017-0.011 0.022 0 0 0 0-0.006 0z"></path>
<path fill="#101720" style="fill: var(--color10, #101720)" d="M17.685 4.283c-0.006 0-0.011 0-0.017-0.011-0.218-0.713-0.784-1.303-0.789-1.314-0.006-0.006-0.006-0.017 0-0.022s0.017-0.006 0.022 0c0.006 0.006 0.577 0.607 0.795 1.325 0 0.011 0 0.017-0.011 0.022z"></path>
<path fill="#101720" style="fill: var(--color10, #101720)" d="M17.315 4.405c-0.006 0-0.011 0-0.017-0.011-0.207-0.746-0.733-1.33-0.739-1.336s-0.006-0.017 0-0.022c0.006-0.006 0.017 0 0.022 0 0.006 0.006 0.537 0.596 0.75 1.347 0 0.011 0 0.017-0.011 0.022z"></path>
<path fill="#101720" style="fill: var(--color10, #101720)" d="M16.94 4.528c-0.006 0-0.017 0-0.017-0.011-0.196-0.779-0.689-1.358-0.694-1.364s0-0.017 0-0.022c0.006-0.006 0.017 0 0.022 0 0 0 0.504 0.59 0.7 1.375 0 0.011 0 0.017-0.011 0.022z"></path>
<path fill="#101720" style="fill: var(--color10, #101720)" d="M16.571 4.65c-0.006 0-0.017 0-0.017-0.011-0.179-0.813-0.638-1.381-0.644-1.386s0-0.017 0-0.022h0.022s0.47 0.579 0.649 1.403c0 0.011 0 0.017-0.011 0.022z"></path>
<path fill="#101720" style="fill: var(--color10, #101720)" d="M16.201 4.773c-0.006 0-0.017 0-0.017-0.011-0.168-0.846-0.588-1.408-0.593-1.414s0-0.017 0-0.022 0.017 0 0.022 0c0 0 0.431 0.573 0.599 1.425 0 0.011 0 0.017-0.011 0.017z"></path>
<path fill="#101720" style="fill: var(--color10, #101720)" d="M15.826 4.895c-0.006 0-0.017 0-0.017-0.011-0.157-0.88-0.543-1.431-0.549-1.436s0-0.017 0-0.022c0-0.006 0.017 0 0.022 0 0 0 0.398 0.568 0.554 1.453 0 0.011 0 0.017-0.011 0.017z"></path>
<path fill="#101720" style="fill: var(--color10, #101720)" d="M15.457 5.018c-0.006 0-0.017-0.006-0.017-0.011-0.14-0.913-0.493-1.458-0.498-1.464 0-0.006 0-0.017 0-0.022h0.022s0.364 0.557 0.504 1.475c0 0.011 0 0.017-0.011 0.017z"></path>
<path fill="#101720" style="fill: var(--color10, #101720)" d="M15.087 5.14c-0.006 0-0.017-0.006-0.017-0.017-0.129-0.946-0.448-1.486-0.448-1.492s0-0.017 0.006-0.022c0.006-0.006 0.017 0 0.022 0 0 0 0.325 0.551 0.453 1.503 0 0.011 0 0.017-0.017 0.017z"></path>
<path fill="#f8f4f0" style="fill: var(--color9, #f8f4f0)" d="M18.53 9.087c0.784 0.128 0.442 1.019-0.896 1.987l0.353 0.145s0.616-0.418 1.080-1.069c0.465-0.651 0.168-1.23-0.554-1.303l0.011 0.234z"></path>
<path fill="#101720" style="fill: var(--color10, #101720)" d="M17.987 11.236s0 0-0.006 0l-0.353-0.145c-0.006 0-0.011-0.006-0.011-0.011s0-0.011 0.006-0.017c0.879-0.635 1.388-1.291 1.293-1.67-0.034-0.15-0.174-0.251-0.392-0.284-0.006 0-0.011-0.006-0.011-0.017l-0.011-0.234v-0.011h0.011c0.353 0.033 0.621 0.195 0.733 0.44 0.118 0.256 0.056 0.573-0.168 0.891-0.459 0.64-1.080 1.069-1.086 1.069 0 0-0.006 0-0.011 0zM17.668 11.069l0.319 0.134c0.073-0.050 0.638-0.457 1.069-1.058 0.218-0.306 0.28-0.607 0.168-0.857-0.106-0.228-0.353-0.384-0.683-0.418l0.011 0.2c0.224 0.039 0.364 0.145 0.403 0.312 0.095 0.395-0.398 1.041-1.282 1.687z"></path>
<path fill="#f8f4f0" style="fill: var(--color9, #f8f4f0)" d="M14.046 5.769c-0.996 0.501-1.388 0.941-1.388 0.941l0.207 0.167z"></path>
<path fill="#101720" style="fill: var(--color10, #101720)" d="M12.87 6.894s-0.006 0-0.011 0l-0.207-0.167s-0.006-0.006-0.006-0.011 0-0.011 0-0.011 0.403-0.451 1.394-0.941c0.006 0 0.017 0 0.022 0.006v0.022l-1.181 1.108s-0.006 0-0.011 0zM12.685 6.705l0.179 0.145 1.086-1.013c-0.817 0.423-1.198 0.796-1.265 0.868z"></path>
<path fill="#f8f4f0" style="fill: var(--color9, #f8f4f0)" d="M14.426 11.703c-0.924 0.946-1.595 1.342-1.595 1.342l0.168 0.239s0.924-0.74 1.428-1.314z"></path>
<path fill="#101720" style="fill: var(--color10, #101720)" d="M12.999 13.301s-0.011 0-0.011-0.006l-0.168-0.239s0-0.006 0-0.011 0-0.006 0.006-0.011c0.006 0 0.677-0.406 1.59-1.342 0 0 0.011-0.006 0.017 0 0.006 0 0.011 0.011 0.011 0.017v0.278c-0.498 0.573-1.422 1.308-1.428 1.319 0 0-0.006 0-0.011 0zM12.859 13.050l0.146 0.212c0.118-0.095 0.941-0.768 1.405-1.297v-0.217c-0.829 0.835-1.45 1.241-1.551 1.308z"></path>
<path fill="#f8f4f0" style="fill: var(--color9, #f8f4f0)" d="M17.517 11.681c-0.924 0.946-1.595 1.342-1.595 1.342l0.168 0.239s0.924-0.74 1.428-1.314z"></path>
<path fill="#101720" style="fill: var(--color10, #101720)" d="M16.089 13.279s-0.011 0-0.011-0.006l-0.168-0.239s0-0.006 0-0.011 0-0.006 0.006-0.011c0.006 0 0.677-0.406 1.59-1.342 0 0 0.011-0.006 0.017 0 0.006 0 0.011 0.011 0.011 0.017v0.278c-0.498 0.573-1.422 1.308-1.428 1.319 0 0-0.006 0-0.011 0zM15.949 13.028l0.146 0.212c0.118-0.095 0.941-0.768 1.405-1.297v-0.217c-0.829 0.835-1.45 1.241-1.551 1.308z"></path>
<path fill="#f8f4f0" style="fill: var(--color9, #f8f4f0)" d="M19.879 11.486c0.314 0.301-0.078 1.175-0.588 1.798l0.213 0.173s0.957-0.963 0.577-1.971z"></path>
<path fill="#101720" style="fill: var(--color10, #101720)" d="M19.504 13.474s-0.006 0-0.011 0l-0.213-0.173c-0.006-0.006-0.006-0.017 0-0.022 0.521-0.629 0.89-1.492 0.588-1.776 0 0-0.006-0.011 0-0.017 0-0.006 0.011-0.011 0.017-0.011h0.202c0.006 0 0.011 0 0.017 0.011 0.381 1.008-0.571 1.982-0.582 1.987 0 0-0.006 0-0.011 0zM19.314 13.284l0.19 0.156c0.101-0.111 0.907-1.002 0.565-1.932h-0.151c0.157 0.189 0.084 0.518-0.006 0.768-0.118 0.323-0.336 0.69-0.599 1.013z"></path>
<path fill="#ff7e6d" style="fill: var(--color12, #ff7e6d)" d="M5.43 8.124l-0.067 0.829 0.896-0.111-0.056-0.429c0.151-0.022 0.409-0.084 0.532-0.251 0.179-0.239 0.062-0.718 0.062-0.718s0.185-0.050 0.157-0.161c-0.034-0.106-0.185-0.089-0.185-0.089-0.073-0.267-0.269-0.785-0.269-0.785l-1.288 0.267s0.028 0.2 0.062 0.462c0.017 0.106-0.146 0.234-0.129 0.351 0.017 0.111 0.213 0.206 0.23 0.301 0.022 0.145 0.045 0.262 0.062 0.334z"></path>
<path fill="#008fb1" style="fill: var(--color13, #008fb1)" d="M6.735 8.163c-0.185 0.145-0.728 0.045-0.901-0.161s0.056-0.418 0.011-0.651c-0.045-0.234-0.151-0.546-0.151-0.546l-0.605 0.601 0.325 0.952s0.448 0.111 0.565 0.284c0.118 0.173-0.022 0.412-0.022 0.412l0.717-0.267z"></path>
<path fill="#101720" style="fill: var(--color10, #101720)" d="M5.357 8.97s-0.006 0-0.011 0c0 0-0.006-0.006 0-0.011l0.067-0.824c-0.011-0.067-0.034-0.178-0.062-0.334-0.006-0.045-0.056-0.089-0.101-0.134-0.056-0.050-0.112-0.106-0.123-0.173-0.011-0.061 0.028-0.128 0.067-0.195 0.034-0.056 0.067-0.111 0.062-0.156-0.034-0.256-0.062-0.462-0.062-0.462 0-0.011 0-0.017 0.011-0.017l1.288-0.267c0.006 0 0.017 0 0.017 0.011 0 0 0.19 0.507 0.269 0.768 0.039 0 0.157 0 0.185 0.1 0.006 0.028 0 0.050-0.006 0.078-0.034 0.056-0.106 0.089-0.14 0.1 0.017 0.083 0.101 0.495-0.067 0.718-0.123 0.161-0.375 0.228-0.526 0.251l0.050 0.412v0.011s-0.006 0.006-0.011 0.006l-0.896 0.111zM5.229 6.693c0.006 0.050 0.034 0.228 0.062 0.445 0.006 0.056-0.028 0.117-0.067 0.178-0.034 0.056-0.073 0.117-0.062 0.173 0.006 0.050 0.062 0.1 0.112 0.15 0.056 0.050 0.106 0.1 0.112 0.15 0.022 0.156 0.045 0.267 0.062 0.334l-0.067 0.813 0.862-0.106-0.050-0.412s0 0 0-0.006 0.006-0.011 0.011-0.017c0.146-0.022 0.397-0.078 0.521-0.239 0.174-0.234 0.062-0.701 0.062-0.707 0-0.011 0-0.017 0.011-0.022 0 0 0.106-0.028 0.14-0.089 0.011-0.017 0.011-0.033 0.006-0.050-0.028-0.089-0.162-0.078-0.162-0.078-0.006 0-0.017 0-0.017-0.011-0.067-0.239-0.235-0.685-0.263-0.768l-1.26 0.262z"></path>
<path fill="#f8f4f0" style="fill: var(--color9, #f8f4f0)" d="M6.617 7.116s-0.084-0.117-0.241-0.072c-0.157 0.045-0.168 0.15-0.168 0.15s0.084 0.117 0.23 0.083c0.146-0.033 0.179-0.161 0.179-0.161z"></path>
<path fill="#101720" style="fill: var(--color10, #101720)" d="M6.477 7.278c0.059 0 0.106-0.047 0.106-0.106s-0.048-0.106-0.106-0.106c-0.059 0-0.106 0.047-0.106 0.106s0.048 0.106 0.106 0.106z"></path>
<path fill="#101720" style="fill: var(--color10, #101720)" d="M6.443 7.862c-0.017 0-0.034 0-0.045-0.011-0.045-0.022-0.073-0.067-0.078-0.128 0-0.011 0.006-0.017 0.017-0.017s0.017 0.006 0.017 0.017c0 0.050 0.022 0.083 0.056 0.1 0.028 0.011 0.062 0.006 0.095-0.017 0.006-0.006 0.017 0 0.022 0s0 0.017 0 0.022c-0.022 0.017-0.050 0.028-0.078 0.028z"></path>
<path fill="#101720" style="fill: var(--color10, #101720)" d="M6.197 7.038s0 0-0.006 0-0.011-0.017-0.006-0.022c0.028-0.056 0.090-0.095 0.168-0.117 0.084-0.022 0.168-0.006 0.224 0.039 0.006 0.006 0.011 0.017 0 0.022s-0.017 0.011-0.022 0c-0.050-0.033-0.123-0.050-0.196-0.033-0.067 0.017-0.123 0.050-0.146 0.095 0 0.006-0.011 0.011-0.017 0.011z"></path>
<path fill="#101720" style="fill: var(--color10, #101720)" d="M6.376 7.038s-0.078 0.017-0.123 0.067c-0.045 0.050-0.062 0.095-0.078 0.106l0.028 0.022s0.067-0.156 0.179-0.195z"></path>
<path fill="#82c9d7" style="fill: var(--color11, #82c9d7)" d="M4.798 7.545c0.022 0.039 0.050 0.072 0.073 0.111 0.302 0.456 0.526 0.824 0.526 0.824l0.073-0.718c-0.095 0.006-0.336-0.189-0.202-0.412 0.112-0.184 0.308 0.067 0.369 0.106 0.011 0.006 0.022 0.011 0.034 0.011s0.017-0.022 0.017-0.033c0.028-0.173 0.011-0.351-0.050-0.518 0.095-0.011 0.196-0.022 0.286-0.056s0.174-0.095 0.213-0.184c0-0.006 0.006-0.017 0.011-0.022 0 0 0.358 0.122 0.537-0.134 0.179-0.262-0.045-0.356-0.045-0.356s-0.353-0.373-0.773-0.323c-1.651 0.206-0.924 0.729-0.924 0.729s-0.509 0.451-0.151 0.974z"></path>
<path fill="#101720" style="fill: var(--color10, #101720)" d="M5.402 8.497c-0.006 0-0.011 0-0.017-0.006 0 0-0.23-0.373-0.526-0.824-0.017-0.028-0.034-0.056-0.056-0.078l-0.022-0.028c-0.325-0.484 0.062-0.902 0.14-0.985-0.050-0.039-0.179-0.161-0.146-0.312 0.050-0.206 0.42-0.351 1.092-0.434 0.403-0.050 0.756 0.289 0.784 0.323 0.017 0.006 0.090 0.050 0.118 0.134 0.022 0.072 0 0.156-0.067 0.25-0.168 0.239-0.476 0.167-0.543 0.145v0.011c-0.045 0.083-0.123 0.156-0.23 0.195-0.090 0.033-0.179 0.045-0.269 0.050 0.050 0.161 0.067 0.334 0.039 0.507 0 0.011-0.006 0.039-0.028 0.045-0.017 0.006-0.039 0-0.050-0.011-0.011-0.006-0.034-0.028-0.056-0.050-0.056-0.050-0.146-0.134-0.213-0.122-0.028 0-0.056 0.022-0.078 0.061-0.062 0.106-0.034 0.195 0 0.256 0.056 0.089 0.146 0.134 0.185 0.134h0.011v0.011l-0.073 0.718c0 0.006-0.006 0.011-0.011 0.017zM5.951 5.853c-0.028 0-0.050 0-0.078 0-0.817 0.1-1.030 0.278-1.064 0.412-0.039 0.15 0.146 0.284 0.146 0.289 0 0 0.006 0.006 0.006 0.011s0 0.011-0.006 0.011c0 0-0.123 0.111-0.207 0.284-0.106 0.228-0.090 0.457 0.056 0.668l0.022 0.028c0.017 0.028 0.034 0.056 0.056 0.078 0.241 0.362 0.437 0.674 0.504 0.779l0.062-0.651c-0.056-0.006-0.146-0.061-0.196-0.145-0.056-0.095-0.062-0.195 0-0.289 0.028-0.045 0.062-0.067 0.101-0.072 0.084-0.011 0.179 0.078 0.241 0.134 0.022 0.022 0.039 0.033 0.050 0.045 0 0 0.017 0.011 0.017 0.006 0.006 0 0.006-0.017 0.011-0.022 0.022-0.167 0.011-0.345-0.045-0.507 0 0 0-0.011 0-0.017s0.006-0.006 0.011-0.006c0.090-0.011 0.19-0.017 0.28-0.050 0.095-0.033 0.174-0.1 0.207-0.173 0-0.011 0.011-0.022 0.017-0.028 0-0.006 0.011-0.006 0.017 0s0.347 0.117 0.515-0.128c0.056-0.083 0.078-0.156 0.062-0.223-0.022-0.078-0.101-0.111-0.101-0.111s0 0-0.006 0c0 0-0.308-0.323-0.677-0.323z"></path>
<path fill="#101720" style="fill: var(--color10, #101720)" d="M6.158 6.671h-0.006c-0.006 0-0.011-0.017-0.006-0.022 0.062-0.111 0.062-0.184 0.062-0.184 0-0.011 0.006-0.017 0.017-0.017s0.017 0.006 0.017 0.017 0 0.083-0.062 0.2c0 0.006-0.011 0.011-0.017 0.011z"></path>
<path fill="#101720" style="fill: var(--color10, #101720)" d="M4.87 7.656c0.302 0.456 0.526 0.824 0.526 0.824l0.073-0.718c-0.095 0.006-0.336-0.189-0.202-0.412 0.112-0.184 0.308 0.067 0.37 0.106 0.011 0.006 0.022 0.011 0.034 0.011s0.017-0.022 0.017-0.033c0.028-0.173 0.011-0.351-0.050-0.518-0.196 0.022-0.638 0.022-0.638 0.022s0.062 0.139 0.101 0.345c0.028 0.15-0.14 0.301-0.229 0.373z"></path>
<path fill="#101720" style="fill: var(--color10, #101720)" d="M5.402 8.497c-0.006 0-0.011 0-0.017-0.006 0 0-0.23-0.373-0.526-0.824 0-0.006 0-0.017 0-0.022 0.078-0.061 0.252-0.212 0.224-0.356-0.039-0.2-0.101-0.34-0.101-0.34s0-0.011 0-0.017 0.006-0.006 0.011-0.006c0 0 0.448 0 0.638-0.022 0.006 0 0.017 0 0.017 0.011 0.056 0.167 0.073 0.351 0.050 0.523 0 0.011-0.006 0.039-0.028 0.045-0.017 0.006-0.039 0-0.050-0.011-0.011-0.006-0.034-0.028-0.056-0.050-0.056-0.050-0.146-0.134-0.213-0.122-0.028 0-0.056 0.022-0.078 0.061-0.062 0.106-0.034 0.195 0 0.256 0.056 0.089 0.146 0.134 0.185 0.134h0.011v0.011l-0.073 0.718c0 0.006-0.006 0.011-0.011 0.017zM4.893 7.662c0.235 0.356 0.425 0.662 0.493 0.768l0.062-0.651c-0.056-0.006-0.146-0.061-0.196-0.145-0.056-0.095-0.062-0.195 0-0.289 0.028-0.045 0.062-0.067 0.101-0.072 0.084-0.011 0.179 0.078 0.241 0.134 0.022 0.022 0.039 0.033 0.050 0.045 0 0 0.017 0.011 0.017 0.006 0.006 0 0.006-0.017 0.011-0.022 0.022-0.167 0.011-0.334-0.045-0.495-0.174 0.017-0.509 0.022-0.605 0.022 0.017 0.050 0.062 0.167 0.095 0.323 0.028 0.15-0.123 0.295-0.224 0.379z"></path>
<path fill="#101720" style="fill: var(--color10, #101720)" d="M6.085 8.441c-0.258 0-0.414-0.156-0.42-0.161s-0.006-0.017 0-0.022 0.017-0.006 0.022 0c0 0 0.202 0.195 0.515 0.139 0.011 0 0.017 0 0.022 0.011s0 0.017-0.011 0.022c-0.045 0.006-0.084 0.011-0.123 0.011z"></path>
<path fill="#101720" style="fill: var(--color10, #101720)" d="M5.525 7.539c-0.006 0-0.011 0-0.017-0.006-0.045-0.078-0.101-0.1-0.123-0.111-0.022-0.006-0.045 0-0.062 0.006-0.006 0-0.017 0-0.022 0s0-0.017 0-0.022c0.022-0.011 0.056-0.017 0.084-0.011 0.056 0.011 0.106 0.056 0.146 0.122 0 0.006 0 0.017-0.006 0.022z"></path>
<path fill="#101720" style="fill: var(--color10, #101720)" d="M5.413 7.623s-0.011 0-0.011-0.006c-0.067-0.083-0.028-0.212-0.028-0.217 0-0.011 0.011-0.011 0.022-0.011s0.011 0.011 0.011 0.022c0 0-0.034 0.117 0.022 0.184 0.006 0.006 0 0.017 0 0.022 0 0-0.006 0-0.011 0z"></path>
<path fill="#f2cdac" style="fill: var(--color7, #f2cdac)" d="M6.847 6.064l-0.202 0.1c0.067-0.033 0.134-0.067 0.202-0.1z"></path>
<path fill="#101720" style="fill: var(--color10, #101720)" d="M6.645 6.176c-0.006 0-0.011 0-0.017-0.011 0-0.006 0-0.017 0.006-0.022 0.062-0.033 0.134-0.067 0.202-0.1 0.006 0 0.017 0 0.022 0.006 0 0.006 0 0.017-0.006 0.022l-0.202 0.1s0 0-0.006 0z"></path>
<path fill="#f2cdac" style="fill: var(--color7, #f2cdac)" d="M6.578 6.632c0.006-0.011 0.123-0.167 0.151-0.301 0.017-0.078-0.050-0.145-0.129-0.139-0.050 0.006-0.112 0.022-0.162 0.050-0.011 0-0.022 0.011-0.034 0.011l-0.028 0.011c-0.062 0.028-0.106 0.056-0.118 0.061-0.75 0.395-1.595 0.88-1.595 0.88s-0.347-0.735 0.112-1.186c0.336-0.328 0.851-0.457 1.192-0.429 0.129 0.011 0.235 0.045 0.291 0.095 0.112 0.095 0.258 0.284 0.37 0.445l0.062-0.028 0.14-0.067c0.19-0.089 0.37-0.156 0.47-0.128 0.403 0.117-0.7 0.707-0.733 0.718z"></path>
<path fill="#101720" style="fill: var(--color10, #101720)" d="M4.663 7.222s-0.006 0-0.011-0.011c0-0.006-0.347-0.752 0.112-1.202 0.347-0.34 0.868-0.462 1.204-0.434 0.134 0.011 0.241 0.045 0.302 0.1 0.090 0.078 0.213 0.223 0.37 0.434l0.19-0.095c0.241-0.111 0.397-0.156 0.487-0.128 0.062 0.017 0.095 0.050 0.101 0.089 0.022 0.212-0.795 0.646-0.829 0.662-0.006 0-0.017 0-0.022 0s-0.006-0.017 0-0.022c0.022-0.028 0.123-0.167 0.151-0.295 0.006-0.033 0-0.061-0.022-0.089-0.022-0.022-0.050-0.033-0.090-0.033-0.045 0-0.101 0.022-0.157 0.045-0.006 0-0.011 0.006-0.017 0.006l-0.039 0.017c-0.056 0.028-0.101 0.056-0.112 0.061-0.739 0.395-1.584 0.874-1.595 0.88h-0.006zM5.878 5.608c-0.33 0-0.778 0.128-1.086 0.429-0.409 0.401-0.162 1.035-0.112 1.147 0.123-0.067 0.896-0.507 1.579-0.868 0.017-0.011 0.062-0.039 0.118-0.067l0.039-0.017c0.006 0 0.011-0.006 0.022-0.006 0.045-0.017 0.106-0.045 0.168-0.050 0.045 0 0.084 0.011 0.118 0.045 0.028 0.033 0.039 0.072 0.034 0.117-0.017 0.089-0.073 0.189-0.112 0.25 0.252-0.139 0.761-0.451 0.75-0.596 0-0.028-0.028-0.050-0.078-0.061-0.078-0.022-0.23 0.017-0.459 0.128l-0.202 0.1c-0.006 0-0.017 0-0.022 0-0.157-0.217-0.28-0.362-0.37-0.44-0.056-0.050-0.157-0.083-0.285-0.089-0.028 0-0.062 0-0.090 0z"></path>
<path fill="#101720" style="fill: var(--color10, #101720)" d="M6.287 6.332c-0.006 0-0.011 0-0.017-0.011 0-0.006 0-0.017 0.006-0.022l0.347-0.178c0.006 0 0.017 0 0.022 0.006 0 0.006 0 0.017-0.006 0.022l-0.347 0.178s0 0-0.006 0z"></path>
<path fill="#101720" style="fill: var(--color10, #101720)" d="M4.562 6.883c0.112-0.050 0.174 0.117 0.224 0.256l-0.123 0.067s-0.084-0.2-0.101-0.323z"></path>
<path fill="#101720" style="fill: var(--color10, #101720)" d="M4.663 7.222s0 0-0.006 0c0 0-0.006 0-0.011-0.011 0-0.006-0.084-0.2-0.101-0.328 0-0.006 0-0.017 0.011-0.017 0.028-0.011 0.062-0.011 0.084 0 0.078 0.033 0.123 0.161 0.162 0.267 0 0.006 0 0.017-0.006 0.022l-0.123 0.067h-0.006zM4.585 6.894c0.017 0.1 0.073 0.239 0.090 0.289l0.095-0.056c-0.034-0.089-0.078-0.206-0.14-0.234-0.017-0.006-0.034-0.006-0.050 0z"></path>
<path fill="#101720" style="fill: var(--color10, #101720)" d="M4.893 7.1c-0.006 0-0.011 0-0.017-0.011-0.050-0.15-0.123-0.245-0.202-0.278-0.067-0.028-0.118 0-0.118 0-0.006 0-0.017 0-0.022-0.006 0-0.006 0-0.017 0.006-0.022 0 0 0.062-0.033 0.146 0 0.090 0.033 0.162 0.134 0.218 0.301 0 0.011 0 0.017-0.011 0.022 0 0 0 0-0.006 0z"></path>
<path fill="#f8f4f0" style="fill: var(--color9, #f8f4f0)" d="M6.695 6.103l-0.285 0.145-0.028 0.011-0.414-0.668c0.129 0.011 0.235 0.045 0.291 0.095 0.112 0.095 0.258 0.284 0.37 0.445l0.062-0.028z"></path>
<path fill="#101720" style="fill: var(--color10, #101720)" d="M6.382 6.281c-0.006 0-0.011 0-0.017-0.006l-0.414-0.668s0-0.006 0-0.011 0-0.006 0.006-0.011h0.011c0.134 0.011 0.241 0.045 0.302 0.1 0.090 0.078 0.213 0.223 0.37 0.434l0.045-0.022c0.006 0 0.017 0 0.022 0.006 0 0.006 0 0.017-0.006 0.022l-0.314 0.161s0 0-0.006 0zM6.001 5.613l0.386 0.629 0.224-0.111c-0.151-0.206-0.269-0.351-0.358-0.423-0.050-0.045-0.14-0.078-0.252-0.089z"></path>
<path fill="#101720" style="fill: var(--color10, #101720)" d="M5.654 6.671c-0.006 0-0.011 0-0.017-0.006l-0.515-0.891c0-0.006 0-0.017 0.006-0.022s0.017 0 0.022 0.006l0.515 0.891c0 0.006 0 0.017-0.006 0.022z"></path>
<path fill="#ff7e6e" style="fill: var(--color14, #ff7e6e)" d="M13.251 16.574c-0.022-0.050-0.481-0.752-0.481-0.752l-1.192 0.735 0.677 1.286 1.030-0.44-0.039-0.829z"></path>
<path fill="#101720" style="fill: var(--color10, #101720)" d="M12.254 17.855c-0.006 0-0.011 0-0.017-0.011l-0.677-1.286c0-0.006 0-0.017 0.006-0.022l1.192-0.735h0.022c0.017 0.028 0.459 0.707 0.481 0.757v0.006l0.039 0.829c0 0.006 0 0.011-0.011 0.017l-1.030 0.44s0 0-0.006 0zM11.599 16.558l0.666 1.258 1.008-0.429-0.039-0.813c-0.028-0.056-0.336-0.534-0.47-0.735z"></path>
<path fill="#f8f4f0" style="fill: var(--color9, #f8f4f0)" d="M12.238 18.378c0.039 0.095 0.084 0.178 0.162 0.239 0.106 0.089 0.274 0.134 0.571 0.106 0.504-0.045 1.316-0.713 1.847-1.303 0.487-0.54 0.801-0.863 0.588-1.175-0.017-0.028-0.045-0.056-0.067-0.083-0.179-0.173-0.521-0.178-0.912-0.089-0.353 0.078-0.745 0.228-1.092 0.39-0.213 0.050-0.168 0.228-0.151 0.395 0.006 0.084 0.011 0.167-0.028 0.228-0.112 0.2-0.392 0.445-0.705 0.34s-0.498 0.15-0.498 0.15 0.185 0.562 0.286 0.79z"></path>
<path fill="#101720" style="fill: var(--color10, #101720)" d="M12.809 18.751c-0.185 0-0.325-0.039-0.42-0.117-0.084-0.067-0.129-0.161-0.168-0.245-0.095-0.228-0.28-0.79-0.286-0.796 0 0 0-0.011 0-0.017 0 0 0.196-0.262 0.515-0.156 0.308 0.1 0.588-0.15 0.689-0.334 0.034-0.061 0.028-0.145 0.022-0.223 0-0.017 0-0.033 0-0.050-0.017-0.156-0.034-0.317 0.168-0.367 0.386-0.184 0.773-0.323 1.092-0.39 0.448-0.1 0.756-0.067 0.924 0.095 0.028 0.028 0.056 0.056 0.073 0.083 0.218 0.306-0.067 0.618-0.537 1.141l-0.050 0.056c-0.543 0.596-1.355 1.258-1.859 1.308-0.062 0.006-0.112 0.006-0.168 0.006zM12.254 18.372c0.034 0.084 0.078 0.173 0.157 0.234 0.112 0.095 0.291 0.122 0.56 0.1 0.498-0.045 1.299-0.701 1.836-1.297l0.050-0.056c0.459-0.507 0.739-0.813 0.537-1.097-0.017-0.028-0.039-0.050-0.067-0.078-0.157-0.156-0.459-0.184-0.896-0.084-0.313 0.067-0.7 0.206-1.080 0.39-0.179 0.045-0.168 0.178-0.146 0.334v0.050c0.006 0.078 0.011 0.167-0.028 0.239-0.202 0.367-0.543 0.406-0.728 0.351-0.274-0.089-0.442 0.1-0.47 0.139 0.022 0.072 0.19 0.568 0.28 0.785z"></path>
<path fill="#f2cdac" style="fill: var(--color7, #f2cdac)" d="M12.4 18.623c0.263 0.74 1.472-0.15 2.418-1.197 0.487-0.54 0.801-0.863 0.588-1.175-0.274 0.629-1.556 1.653-2.144 2.015-0.403 0.245-0.694 0.328-0.862 0.356z"></path>
<path fill="#101720" style="fill: var(--color10, #101720)" d="M12.769 18.907c-0.034 0-0.062 0-0.090-0.011-0.14-0.028-0.235-0.117-0.291-0.273v-0.011s0.006-0.006 0.011-0.006c0.168-0.028 0.459-0.106 0.857-0.351 0.605-0.373 1.87-1.386 2.139-2.004 0-0.006 0.006-0.011 0.011-0.011s0.011 0 0.017 0.006c0.218 0.306-0.067 0.618-0.537 1.141l-0.050 0.056c-0.633 0.696-1.528 1.475-2.066 1.475zM12.422 18.634c0.050 0.134 0.14 0.212 0.258 0.234 0.313 0.061 1.058-0.284 2.122-1.453l0.050-0.056c0.448-0.49 0.722-0.796 0.554-1.074-0.297 0.629-1.54 1.625-2.139 1.993-0.386 0.239-0.672 0.323-0.845 0.356z"></path>
<path fill="#f2cdac" style="fill: var(--color7, #f2cdac)" d="M13.184 16.869c1.041-0.362 1.254-0.584 1.243-0.785-0.353 0.078-0.745 0.228-1.092 0.39-0.213 0.050-0.168 0.228-0.151 0.395z"></path>
<path fill="#101720" style="fill: var(--color10, #101720)" d="M13.184 16.88s-0.006 0-0.011 0c0 0-0.006-0.006-0.006-0.011 0-0.017 0-0.033 0-0.050-0.017-0.156-0.034-0.317 0.168-0.367 0.386-0.184 0.773-0.323 1.092-0.39h0.011c0.006 0 0.011 0.006 0.011 0.017 0.011 0.262-0.347 0.49-1.254 0.802 0 0 0 0-0.006 0zM14.41 16.101c-0.313 0.072-0.689 0.206-1.064 0.384-0.179 0.045-0.168 0.178-0.146 0.334v0.028c1.041-0.362 1.209-0.579 1.209-0.746z"></path>
<path fill="#101720" style="fill: var(--color10, #101720)" d="M12.249 18.161c-0.039 0-0.073 0-0.106-0.011-0.011 0-0.017-0.011-0.011-0.022s0.011-0.017 0.022-0.011c0.341 0.067 0.996-0.25 1.299-0.501 0.034-0.028 0.067-0.050 0.101-0.078 0.297-0.234 0.627-0.495 0.392-0.974 0-0.006 0-0.017 0.006-0.022 0.006 0 0.017 0 0.022 0.006 0.252 0.501-0.112 0.785-0.398 1.013-0.034 0.028-0.067 0.056-0.101 0.078-0.28 0.228-0.857 0.518-1.22 0.518z"></path>
<path fill="#82c9d7" style="fill: var(--color11, #82c9d7)" d="M8.19 15.383l1.545-0.54 1.651 2.511 1.959-1.347s-1.495-3.307-2.116-3.702c-0.621-0.395-3.141 0.473-3.141 0.473l0.095 2.6z"></path>
<path fill="#008fb1" style="fill: var(--color13, #008fb1)" d="M8.296 12.85c0.509 0.557 0.649 1.52 1.013 1.559s1.22-0.418 1.164-0.111c-0.056 0.306-0.011 0.885 0.437 1.525 0.448 0.635 1.243 1.013 1.769 0.657 0.521-0.362 0.162 0.54 0.162 0.54l-1.26 0.668-1.344 0.278-2.379-2.076 0.442-3.034z"></path>
<path fill="#101720" style="fill: var(--color10, #101720)" d="M8.173 12.472c0.476 0.685 0.717 2.366 0.801 2.856s-1.276 0.585-1.276 0.585z"></path>
<path fill="#101720" style="fill: var(--color10, #101720)" d="M11.392 17.37s-0.006 0-0.011-0.006l-1.646-2.499-1.534 0.534s-0.011 0-0.017 0c0 0-0.006-0.006-0.006-0.011l-0.095-2.6c0-0.006 0-0.011 0.011-0.017 0.006 0 0.638-0.223 1.338-0.39 0.946-0.223 1.556-0.256 1.814-0.089s0.7 0.841 1.299 2.004c0.448 0.863 0.823 1.692 0.823 1.703 0 0.006 0 0.017-0.006 0.022l-1.959 1.347s-0.006 0-0.011 0zM9.735 14.826c0.006 0 0.011 0 0.011 0.006l1.646 2.499 1.937-1.33c-0.101-0.223-1.512-3.301-2.105-3.68-0.588-0.373-2.928 0.412-3.113 0.473l0.095 2.566 1.523-0.529h0.006z"></path>
<path fill="#82c9d7" style="fill: var(--color11, #82c9d7)" d="M8.593 13.796c0 1.759-0.453 2.733-1.909 4.181s-3.672 2.594-3.672 2.594 0.157-0.39 0-1.197-1.5-2.355-1.987-2.193c0 0 2.055-1.241 2.715-1.714 0 0-0.985-0.963-0.593-1.676h5.447z"></path>
<path fill="#008fb1" style="fill: var(--color13, #008fb1)" d="M4.926 13.479c-0.554 0.523 0.017 1.002-0.118 1.542s-2.094 1.742-2.211 2.266c-0.118 0.518 1.444 1.614 1.444 2.694s-0.812 1.275-0.812 1.275l-2.223-1.87-0.997-2.694 2.883-3.429z"></path>
<path fill="#101720" style="fill: var(--color10, #101720)" d="M3.012 20.588s-0.006 0-0.011 0c0 0-0.006-0.011 0-0.017 0 0 0.151-0.395 0-1.186-0.129-0.662-1.019-1.753-1.59-2.087-0.162-0.095-0.286-0.122-0.381-0.095-0.006 0-0.017 0-0.022-0.011 0-0.006 0-0.017 0.006-0.022 0.022-0.011 2.027-1.225 2.698-1.698-0.118-0.122-0.952-1.013-0.582-1.681 0-0.006 0.011-0.011 0.017-0.011h5.447c0.011 0 0.017 0.006 0.017 0.017 0 1.754-0.442 2.733-1.915 4.197s-3.656 2.583-3.678 2.594c0 0 0 0-0.006 0zM1.103 17.153c0.090 0 0.196 0.039 0.319 0.111 0.577 0.334 1.478 1.436 1.607 2.11 0.129 0.668 0.045 1.047 0.011 1.163 0.297-0.156 2.301-1.241 3.633-2.572 1.461-1.453 1.903-2.421 1.903-4.153h-5.425c-0.369 0.696 0.588 1.637 0.593 1.648 0 0 0.006 0.006 0 0.011 0 0 0 0.011-0.006 0.011-0.588 0.418-2.278 1.447-2.648 1.67z"></path>
<path fill="#101720" style="fill: var(--color10, #101720)" d="M3.012 20.571c-0.034-0.017-1.108-0.507-1.595-1.531-0.498-1.041-0.392-1.859-0.392-1.859 0.487-0.161 1.836 1.386 1.987 2.193 0.157 0.807 0 1.197 0 1.197z"></path>
<path fill="#101720" style="fill: var(--color10, #101720)" d="M3.012 20.588s-0.006 0-0.011 0c-0.067-0.033-1.114-0.518-1.607-1.536-0.493-1.035-0.392-1.859-0.392-1.865s0-0.011 0.011-0.011c0.101-0.033 0.235 0 0.409 0.095 0.577 0.334 1.478 1.436 1.607 2.11 0.157 0.802 0 1.191 0 1.202 0 0-0.006 0.011-0.011 0.011zM1.041 17.198c-0.011 0.1-0.067 0.874 0.392 1.837 0.465 0.969 1.433 1.447 1.573 1.514 0.028-0.084 0.129-0.473-0.006-1.169-0.129-0.662-1.019-1.753-1.59-2.087-0.157-0.089-0.28-0.122-0.369-0.1z"></path>
<path fill="#101720" style="fill: var(--color10, #101720)" d="M3.146 13.813s0 0-0.006 0c-0.011 0-0.011-0.017-0.006-0.022 0 0 0-0.011 0.028-0.050 0.022-0.039 0.039-0.072 0.056-0.1l0.022-0.045c0-0.006 0.017-0.011 0.022-0.006 0.011 0 0.011 0.017 0.006 0.022l-0.022 0.045c-0.017 0.028-0.034 0.061-0.056 0.1-0.022 0.045-0.028 0.050-0.028 0.050 0 0.006-0.011 0.011-0.017 0.011z"></path>
<path fill="#101720" style="fill: var(--color10, #101720)" d="M3.146 13.813s0 0-0.006 0c-0.011 0-0.011-0.017-0.006-0.022 0 0 0-0.011 0.028-0.050 0.022-0.039 0.039-0.072 0.056-0.1 0.011-0.017 0.017-0.033 0.022-0.045l0.017-0.033s0 0 0-0.006c0 0 0-0.006 0.006-0.011 0-0.006 0-0.011 0.006-0.011 0 0 0-0.006 0.006-0.011 0 0 0 0 0-0.006s0.006-0.011 0.011-0.017v-0.006c0.006-0.006 0.017-0.006 0.022 0s0.006 0.017 0 0.022v0.028s0 0.011-0.011 0.017c0 0.006-0.006 0.011-0.011 0.022v0.006l-0.022 0.039c-0.006 0.011-0.017 0.028-0.022 0.045-0.017 0.028-0.034 0.061-0.056 0.1-0.022 0.045-0.028 0.050-0.028 0.050 0 0.006-0.011 0.011-0.017 0.011z"></path>
<path fill="#f8f4f0" style="fill: var(--color9, #f8f4f0)" d="M0.8 12.611c2.15-2.566 2.956-3.657 4.652-3.891s3.852 1.030 3.852 1.030l1.506-2.138s0.896 0.234 1.428 0.623c0 0-1.131 2.566-2.071 3.346s-1.915 0.173-1.915 0.173l0.347 2.043h-5.447l0.168-1.314-1.17 1.431-1.344-1.303z"></path>
<path fill="#8fdce8" style="fill: var(--color15, #8fdce8)" d="M0.929 13.262s2.497-3.401 3.23-3.913c0.733-0.507 2.721-0.317 3.684 0.084s1.17 0.484 1.164 0.579-0.090 0.301-0.090 0.301 0.213 0.056 0.431-0.2c0.218-0.251 1.663-2.572 1.663-2.572l-2.071-0.479-6.723 1.497-2.721 3.334 1.439 1.358z"></path>
<path fill="#101720" style="fill: var(--color10, #101720)" d="M2.144 13.93h-0.011l-1.344-1.303c-0.006-0.006-0.006-0.017 0-0.022 0.146-0.173 0.28-0.334 0.414-0.495 1.825-2.182 2.659-3.184 4.249-3.401 0.885-0.122 1.887 0.167 2.57 0.429 0.677 0.262 1.187 0.546 1.276 0.596l1.495-2.126c0-0.006 0.011-0.006 0.017-0.006 0.011 0 0.907 0.239 1.433 0.623 0.006 0 0.006 0.011 0.006 0.022 0 0.006-0.286 0.651-0.683 1.381-0.364 0.674-0.907 1.564-1.394 1.971-0.845 0.696-1.73 0.289-1.903 0.195l0.341 2.010v0.011s-0.006 0.006-0.011 0.006h-5.447s-0.011 0-0.011-0.006c0 0 0-0.006 0-0.011l0.157-1.258-1.131 1.386s-0.006 0.006-0.011 0.006zM0.823 12.611l1.321 1.28 1.159-1.419c0-0.006 0.011-0.006 0.017 0 0.006 0 0.011 0.011 0.011 0.017l-0.162 1.297h5.413l-0.341-2.021c0-0.006 0-0.011 0.006-0.017s0.011 0 0.017 0 0.98 0.585 1.898-0.173c0.89-0.74 1.976-3.134 2.060-3.329-0.493-0.356-1.293-0.579-1.4-0.607l-1.5 2.126c0 0.006-0.017 0.011-0.022 0-0.006 0-0.549-0.317-1.288-0.601-0.683-0.262-1.679-0.546-2.553-0.429-1.579 0.217-2.357 1.147-4.232 3.39-0.129 0.156-0.263 0.317-0.403 0.484z"></path>
<path fill="#ff7e6d" style="fill: var(--color12, #ff7e6d)" d="M10.81 7.612c0.207-0.323 0.084-0.718 0.487-0.701 0 0 0.146-0.234 0.274-0.306s0.252-0.017 0.274 0.106c0 0 0.129-0.061 0.23 0.011s0.095 0.156 0.095 0.156 0.174-0.017 0.246 0.095c0.073 0.111 0.028 0.178 0.028 0.178s0.224-0.011 0.218 0.217c-0.011 0.228-0.425 0.868-0.425 0.868z"></path>
<path fill="#008fb1" style="fill: var(--color13, #008fb1)" d="M11.336 6.855s-0.291 0.406-0.23 0.551c0.056 0.145 1.276 0.796 1.276 0.796l-0.112 0.161-1.601-0.751 0.090-0.546 0.291-0.284z"></path>
<path fill="#008fb1" style="fill: var(--color13, #008fb1)" d="M11.599 6.554c0.134 0 0.157 0.089 0.146 0.145s-0.056 0.156-0.034 0.173c0.022 0.017 0.067-0.061 0.090-0.1s0.073-0.134 0.073-0.134l-0.034-0.128-0.179-0.022-0.062 0.061z"></path>
<path fill="#008fb1" style="fill: var(--color13, #008fb1)" d="M12.014 6.699c0.062 0.022 0.095 0.117 0.078 0.173s-0.050 0.139-0.022 0.161c0.028 0.022 0.101-0.134 0.129-0.2s-0.028-0.167-0.028-0.167l-0.101-0.045-0.062 0.083z"></path>
<path fill="#008fb1" style="fill: var(--color13, #008fb1)" d="M12.321 6.899c0.073 0.061 0.078 0.189 0.056 0.228s-0.073 0.178-0.039 0.195 0.090-0.145 0.090-0.145l0.062-0.128-0.045-0.195-0.123 0.039z"></path>
<path fill="#008fb1" style="fill: var(--color13, #008fb1)" d="M12.512 7.161c0.067 0.072 0.067 0.117 0.056 0.262s-0.095 0.328-0.011 0.356c0.084 0.028 0.241-0.384 0.241-0.384l-0.106-0.289z"></path>
<path fill="#101720" style="fill: var(--color10, #101720)" d="M11.062 7.289s-0.006 0-0.011 0-0.011-0.017 0-0.022l0.235-0.362c0-0.006 0.017-0.011 0.022 0 0.006 0 0.011 0.017 0 0.022l-0.235 0.362s-0.006 0.006-0.011 0.006z"></path>
<path fill="#101720" style="fill: var(--color10, #101720)" d="M11.762 6.871h-0.006c-0.006 0-0.011-0.017-0.006-0.022l0.084-0.145c0-0.006 0.017-0.011 0.022-0.006 0.006 0 0.011 0.017 0.006 0.022l-0.084 0.145c0 0.006-0.011 0.006-0.017 0.006z"></path>
<path fill="#101720" style="fill: var(--color10, #101720)" d="M12.103 7.022s0 0-0.006 0-0.011-0.017-0.006-0.022l0.067-0.134c0-0.006 0.017-0.011 0.022-0.006 0.006 0 0.011 0.017 0.006 0.022l-0.067 0.134c0 0.006-0.011 0.011-0.017 0.011z"></path>
<path fill="#101720" style="fill: var(--color10, #101720)" d="M12.377 7.306s0 0-0.006 0c-0.006 0-0.011-0.011-0.006-0.022l0.067-0.145c0-0.006 0.011-0.011 0.022-0.006s0.011 0.011 0.006 0.022l-0.067 0.145c0 0.006-0.011 0.011-0.017 0.011z"></path>
<path fill="#101720" style="fill: var(--color10, #101720)" d="M10.877 7.484c0.554 0.284 1.36 0.751 1.36 0.751l-1.428-0.623 0.067-0.134z"></path>
<path fill="#101720" style="fill: var(--color10, #101720)" d="M12.238 8.252s0 0-0.006 0l-1.428-0.623s-0.006-0.006-0.011-0.011v-0.011l0.067-0.134s0.006-0.006 0.011-0.006h0.011c0.549 0.284 1.349 0.746 1.36 0.752 0.006 0 0.011 0.011 0.006 0.022 0 0.006-0.011 0.011-0.017 0.011zM10.832 7.606l1.131 0.495c-0.28-0.161-0.728-0.412-1.080-0.596z"></path>
<path fill="#101720" style="fill: var(--color10, #101720)" d="M12.238 8.252s0 0-0.006 0l-1.428-0.623s-0.006-0.006-0.011-0.011v-0.011c0.073-0.111 0.106-0.234 0.134-0.345 0.050-0.2 0.095-0.367 0.358-0.367 0.028-0.045 0.157-0.239 0.274-0.306 0.067-0.039 0.14-0.045 0.196-0.017 0.045 0.022 0.078 0.061 0.095 0.117 0.039-0.017 0.146-0.045 0.23 0.017 0.078 0.056 0.101 0.122 0.101 0.156 0.050 0 0.179 0.006 0.246 0.106 0.050 0.078 0.050 0.139 0.039 0.173 0.034 0 0.101 0.017 0.151 0.061 0.039 0.039 0.062 0.1 0.056 0.173-0.011 0.228-0.409 0.852-0.425 0.874 0 0-0.006 0.006-0.011 0.006zM10.838 7.606l1.394 0.607c0.056-0.089 0.403-0.64 0.414-0.846 0-0.061-0.011-0.111-0.050-0.145-0.056-0.056-0.151-0.056-0.151-0.056-0.006 0-0.011 0-0.017-0.006 0-0.006 0-0.011 0-0.017 0 0 0.034-0.061-0.028-0.161-0.067-0.1-0.23-0.089-0.23-0.089h-0.011s-0.006-0.006 0-0.011c0 0 0-0.078-0.090-0.145s-0.213-0.011-0.213-0.006c0 0-0.011 0-0.017 0 0 0-0.006-0.006-0.011-0.011-0.011-0.050-0.039-0.089-0.084-0.111-0.050-0.022-0.106-0.017-0.168 0.017-0.123 0.067-0.269 0.301-0.269 0.301s-0.006 0.006-0.017 0.006c-0.246-0.011-0.28 0.139-0.336 0.34-0.028 0.106-0.056 0.228-0.129 0.34z"></path>
<path fill="#101720" style="fill: var(--color10, #101720)" d="M8.296 12.032l-0.75-0.785c0.19 0.189 0.425 0.362 0.705 0.507z"></path>
<path fill="#101720" style="fill: var(--color10, #101720)" d="M8.296 12.049h-0.011l-0.75-0.785c-0.006-0.006-0.006-0.017 0-0.022s0.017-0.006 0.022 0c0.19 0.189 0.431 0.367 0.7 0.507 0 0 0.006 0.006 0.011 0.011l0.045 0.278c0 0.006 0 0.017-0.011 0.017 0 0 0 0-0.006 0zM7.804 11.497l0.465 0.484-0.034-0.217c-0.151-0.078-0.297-0.173-0.425-0.267z"></path>
<path fill="#101720" style="fill: var(--color10, #101720)" d="M7.541 11.264s-0.006 0-0.011 0c-0.022-0.022-0.045-0.045-0.067-0.067l-0.011-0.011c-0.252-0.278-0.392-0.585-0.397-0.857 0-0.011 0.006-0.017 0.017-0.017s0.017 0.006 0.017 0.017c0 0.273 0.146 0.573 0.397 0.852l0.067 0.067c0.006 0.006 0.006 0.017 0 0.022s-0.006 0-0.011 0z"></path>
<path fill="#101720" style="fill: var(--color10, #101720)" d="M3.516 11.219l-0.504 1.631 0.302-0.367c0.207-1.381 0.425-2.527 0.425-2.527z"></path>
<path fill="#101720" style="fill: var(--color10, #101720)" d="M3.012 12.861s0 0-0.006 0c-0.006 0-0.011-0.011-0.011-0.022l0.504-1.631c0.123-0.74 0.224-1.253 0.224-1.258 0-0.011 0.011-0.017 0.022-0.011 0.011 0 0.017 0.011 0.011 0.022 0 0.011-0.224 1.163-0.425 2.522v0.006l-0.302 0.367s-0.006 0.006-0.011 0.006zM3.454 11.464l-0.403 1.308 0.241-0.295c0.050-0.356 0.106-0.701 0.157-1.008z"></path>
<path fill="#ff7e6d" style="fill: var(--color12, #ff7e6d)" d="M2.144 13.913s-0.476 0.729-0.644 0.779c-0.168 0.056-0.19-0.362-0.19-0.362s-0.649 0.824-0.784 0.902c-0.134 0.078-0.285-0.084-0.252-0.206 0 0-0.23 0.234-0.353 0.128s-0.028-0.351-0.028-0.351-0.207 0.178-0.319 0.061c-0.112-0.117-0.017-0.306-0.017-0.306s-0.179 0.033-0.213-0.156c-0.034-0.189 0.588-0.746 1.461-1.787l1.344 1.303z"></path>
<path fill="#008fb1" style="fill: var(--color13, #008fb1)" d="M0.476 12.911c0.342-0.072 0.795 0.301 1.002 0.623s-0.022 0.618-0.196 0.529-0.358-0.239-0.347-0.145c0.011 0.089 0.179 0.406 0.146 0.507s-0.627 0.807-0.75 0.774c-0.118-0.033 0.067 0.256 0.067 0.256l1.198-0.2 0.465-0.679 0.196-0.88-0.509-0.707-0.997-0.551-0.263 0.468z"></path>
<path fill="#008fb1" style="fill: var(--color13, #008fb1)" d="M0.711 14.453s0.073-0.095 0.011-0.117c-0.062-0.022-0.375 0.429-0.504 0.579s-0.342 0.245-0.448 0.2c-0.101-0.039 0.252 0.173 0.252 0.173l0.224-0.223 0.459-0.612z"></path>
<path fill="#008fb1" style="fill: var(--color13, #008fb1)" d="M0.369 14.181c0.017-0.056 0.022-0.106-0.017-0.111s-0.263 0.34-0.386 0.484-0.302 0.312-0.392 0.245c-0.084-0.067-0.067 0.173-0.067 0.173l0.157 0.056 0.207-0.195 0.498-0.646z"></path>
<path fill="#008fb1" style="fill: var(--color13, #008fb1)" d="M0.089 13.902c0.028-0.050-0.011-0.067-0.039-0.056s-0.342 0.395-0.487 0.512-0.218 0.145-0.28 0.095c-0.062-0.050 0.050 0.173 0.050 0.173h0.129l0.067-0.061z"></path>
<path fill="#101720" style="fill: var(--color10, #101720)" d="M0.448 15.266c-0.039 0-0.078-0.011-0.112-0.039-0.050-0.039-0.084-0.1-0.090-0.161-0.073 0.061-0.235 0.184-0.342 0.095-0.095-0.083-0.073-0.239-0.050-0.323-0.067 0.050-0.213 0.122-0.302 0.028-0.095-0.1-0.056-0.239-0.034-0.295-0.028 0-0.078 0-0.123-0.033-0.045-0.028-0.067-0.078-0.078-0.139-0.022-0.128 0.207-0.379 0.621-0.835 0.235-0.256 0.521-0.579 0.845-0.963 0 0 0.006-0.006 0.011-0.006h0.011l1.344 1.303c0 0.006 0.006 0.017 0 0.022-0.017 0.028-0.481 0.735-0.655 0.79-0.034 0.011-0.062 0.006-0.090-0.011-0.084-0.056-0.106-0.239-0.118-0.323-0.123 0.156-0.638 0.802-0.761 0.868-0.028 0.017-0.056 0.022-0.084 0.022zM0.274 15.004h0.011c0.006 0 0.011 0.011 0.006 0.017-0.017 0.056 0.011 0.128 0.067 0.173 0.050 0.039 0.106 0.045 0.157 0.017 0.129-0.078 0.773-0.885 0.778-0.896 0-0.006 0.011-0.006 0.017-0.006s0.011 0.006 0.011 0.017c0 0.078 0.028 0.284 0.106 0.34 0.017 0.011 0.039 0.017 0.062 0.006 0.129-0.039 0.465-0.512 0.627-0.763l-1.321-1.28c-0.319 0.379-0.605 0.696-0.834 0.952-0.381 0.418-0.633 0.696-0.61 0.807 0.011 0.050 0.034 0.089 0.067 0.117 0.056 0.039 0.129 0.028 0.129 0.028 0.006 0 0.011 0 0.017 0.006s0 0.011 0 0.017c0 0-0.084 0.178 0.017 0.284s0.297-0.061 0.297-0.061 0.011-0.006 0.022 0c0.006 0 0.011 0.011 0.006 0.022 0 0-0.084 0.239 0.022 0.334s0.325-0.122 0.325-0.122h0.011z"></path>
<path fill="#101720" style="fill: var(--color10, #101720)" d="M-0.448 14.57s-0.006 0-0.011 0c-0.006-0.006-0.011-0.017 0-0.022l0.554-0.668c0.006-0.006 0.017-0.006 0.022 0s0.011 0.017 0 0.022l-0.554 0.668-0.011 0.006z"></path>
<path fill="#101720" style="fill: var(--color10, #101720)" d="M-0.106 14.81s-0.006 0-0.011 0c-0.006-0.006-0.011-0.017 0-0.022l0.498-0.64c0-0.006 0.017-0.006 0.022 0s0.011 0.017 0 0.022l-0.498 0.64-0.011 0.006z"></path>
<path fill="#101720" style="fill: var(--color10, #101720)" d="M0.274 15.038s-0.006 0-0.011 0c-0.006-0.006-0.011-0.017 0-0.022l0.47-0.607c0-0.006 0.017-0.011 0.022 0 0.006 0.006 0.011 0.017 0 0.022l-0.47 0.607-0.011 0.006z"></path>
<path fill="#101720" style="fill: var(--color10, #101720)" d="M1.31 14.348s-0.006 0-0.011 0l-0.571-0.501c-0.006-0.006-0.006-0.017 0-0.022s0.017-0.006 0.022 0l0.571 0.501c0.006 0.006 0.006 0.017 0 0.022 0 0-0.006 0.006-0.011 0.006z"></path>
<path fill="#101720" style="fill: var(--color10, #101720)" d="M0.683 12.744l1.461 1.169-1.344-1.303z"></path>
<path fill="#101720" style="fill: var(--color10, #101720)" d="M2.144 13.93s-0.006 0-0.011 0l-1.456-1.169s0-0.006-0.006-0.011c-0.006-0.006 0-0.011 0-0.011l0.112-0.134s0.006-0.006 0.011-0.006h0.011l1.344 1.303c0.006 0.006 0.006 0.017 0 0.022 0 0-0.006 0.006-0.011 0.006zM0.711 12.744l1.164 0.935-1.075-1.041z"></path>
<path fill="#ff7e6e" style="fill: var(--color14, #ff7e6e)" d="M1.713 18.044c0.067 0.061 0.146 0.139 0.224 0.228 0.308 0.34 0.565 0.768 0.733 1.186l-0.649 0.445-0.313 0.212-0.694-0.729-0.011-0.924 0.045-0.028 0.666-0.395z"></path>
<path fill="#101720" style="fill: var(--color10, #101720)" d="M1.713 20.131h-0.011l-0.694-0.729s0-0.006 0-0.011l-0.011-0.924c0-0.006 0-0.011 0.011-0.017l0.711-0.418h0.022c0.067 0.067 0.146 0.139 0.224 0.228 0.291 0.317 0.554 0.74 0.739 1.191 0 0.006 0 0.017-0.006 0.022l-0.957 0.662s-0.006 0-0.011 0zM1.030 19.374l0.683 0.718 0.935-0.646c-0.185-0.44-0.442-0.857-0.728-1.169-0.073-0.084-0.146-0.156-0.213-0.217l-0.694 0.412 0.011 0.907z"></path>
<path fill="#f8f4f0" style="fill: var(--color9, #f8f4f0)" d="M1.282 18.779c-0.056 0.25-0.218 0.668 0.14 0.846 0.179 0.089 0.336 0.145 0.465 0.217 0.134 0.072 0.241 0.156 0.319 0.295 0.078 0.145 0.146 0.774 0.14 1.442-0.006 0.579-0.067 1.186-0.224 1.525-0.095 0.206-0.185 0.351-0.263 0.451-0.207 0.267-0.353 0.245-0.353 0.245l-2.463-4.537c0.078-0.111 0.263-0.273 0.481-0.44 0.386-0.289 0.89-0.579 1.136-0.59 0.386-0.011 0.672 0.289 0.616 0.54z"></path>
<path fill="#101720" style="fill: var(--color10, #101720)" d="M1.511 23.822h-0.011s-0.011 0-0.011-0.006l-2.463-4.537c0-0.006 0-0.011 0-0.017 0.073-0.106 0.252-0.267 0.487-0.44 0.386-0.289 0.89-0.585 1.148-0.59 0.207-0.006 0.409 0.078 0.532 0.223 0.090 0.106 0.123 0.228 0.101 0.34-0.006 0.033-0.017 0.067-0.022 0.106-0.067 0.256-0.146 0.573 0.157 0.724 0.078 0.039 0.151 0.072 0.224 0.1 0.090 0.039 0.174 0.078 0.246 0.117 0.157 0.084 0.258 0.178 0.325 0.301 0.084 0.156 0.151 0.802 0.14 1.447 0 0.395-0.039 1.125-0.23 1.531-0.084 0.189-0.174 0.34-0.263 0.456-0.185 0.234-0.319 0.25-0.353 0.25zM-0.935 19.263l2.452 4.52c0.034 0 0.157-0.022 0.325-0.234 0.090-0.111 0.179-0.262 0.263-0.451 0.185-0.401 0.218-1.119 0.224-1.514 0.006-0.696-0.067-1.303-0.14-1.436-0.067-0.117-0.157-0.206-0.313-0.29-0.073-0.039-0.157-0.078-0.241-0.117-0.073-0.033-0.146-0.067-0.224-0.106-0.325-0.161-0.241-0.507-0.174-0.763 0.011-0.033 0.017-0.072 0.022-0.1 0.022-0.1-0.011-0.212-0.095-0.312-0.118-0.139-0.302-0.217-0.504-0.212-0.246 0.011-0.761 0.312-1.131 0.585-0.224 0.167-0.392 0.323-0.47 0.423z"></path>
<path fill="#f2cdac" style="fill: var(--color7, #f2cdac)" d="M0.923 20.215c0.689 1.23 1.316 2.394 0.935 3.346-0.207 0.267-0.353 0.245-0.353 0.245l-2.463-4.537c0.078-0.111 0.263-0.273 0.481-0.44 0 0 0.705 0.156 1.394 1.386z"></path>
<path fill="#101720" style="fill: var(--color10, #101720)" d="M1.511 23.822h-0.011s-0.011 0-0.011-0.006l-2.463-4.537c0-0.006 0-0.011 0-0.017 0.073-0.106 0.252-0.267 0.487-0.44h0.011c0.006 0 0.722 0.173 1.405 1.397 0.655 1.169 1.332 2.383 0.935 3.357v0.006c-0.185 0.234-0.319 0.25-0.353 0.25zM-0.935 19.263l2.452 4.52c0.034 0 0.157-0.022 0.325-0.234 0.386-0.963-0.285-2.165-0.935-3.329-0.638-1.147-1.299-1.358-1.377-1.381-0.218 0.167-0.386 0.317-0.465 0.423z"></path>
<path fill="#82c9d7" style="fill: var(--color11, #82c9d7)" d="M-0.957 19.263c0.28-0.423 1.142 0.367 1.836 1.726s1.058 2.344 0.627 2.811c-0.437 0.468-1.472-1.542-1.847-2.366s-0.873-1.703-0.61-2.171z"></path>
<path fill="#101720" style="fill: var(--color10, #101720)" d="M1.355 23.889c-0.011 0-0.028 0-0.039 0-0.599-0.095-1.629-2.349-1.674-2.444-0.056-0.122-0.112-0.239-0.168-0.362-0.347-0.729-0.672-1.419-0.442-1.826 0.056-0.084 0.14-0.128 0.241-0.122 0.409 0.022 1.080 0.785 1.629 1.854 0.694 1.353 1.064 2.355 0.621 2.828-0.045 0.050-0.101 0.078-0.162 0.078zM-0.941 19.274c-0.218 0.395 0.118 1.108 0.442 1.793 0.056 0.122 0.112 0.245 0.168 0.362 0.369 0.807 1.181 2.349 1.651 2.421 0.067 0.011 0.123-0.011 0.174-0.061 0.431-0.462 0.062-1.447-0.627-2.789-0.532-1.041-1.204-1.815-1.601-1.831-0.090-0.006-0.157 0.033-0.207 0.106z"></path>
<path fill="#f2cdac" style="fill: var(--color7, #f2cdac)" d="M1.887 19.842c0.134 0.072 0.241 0.156 0.319 0.295 0.078 0.145 0.146 0.774 0.14 1.442-0.375-0.145-0.476-1.063-0.459-1.737z"></path>
<path fill="#101720" style="fill: var(--color10, #101720)" d="M2.346 21.595s0 0-0.006 0c-0.375-0.145-0.487-1.035-0.47-1.753 0-0.006 0-0.011 0.011-0.011h0.017c0.157 0.084 0.258 0.178 0.325 0.301 0.084 0.156 0.151 0.807 0.14 1.447 0 0.006 0 0.011-0.006 0.011 0 0-0.006 0-0.011 0zM1.903 19.87c-0.011 0.685 0.090 1.52 0.425 1.681 0-0.685-0.067-1.28-0.14-1.408-0.062-0.111-0.151-0.195-0.285-0.273z"></path>
<path fill="#101720" style="fill: var(--color10, #101720)" d="M1.931 20.694c-0.392-0.033-0.56-0.362-0.75-0.829-0.185-0.456-0.823-1.080-1.243-1.308-0.011 0-0.011-0.017-0.006-0.022s0.017-0.011 0.022-0.006c0.425 0.234 1.069 0.863 1.26 1.325 0.185 0.456 0.347 0.779 0.722 0.807 0.011 0 0.017 0.011 0.017 0.017 0 0.011-0.006 0.017-0.017 0.017z"></path>
<path fill="#101720" style="fill: var(--color10, #101720)" d="M3.739 15.472c0.397-0.262 0.7-0.752 0.7-0.752s-0.644 0.401-0.952 0.462z"></path>
<path fill="#101720" style="fill: var(--color10, #101720)" d="M3.74 15.489c-0.006 0-0.011 0-0.011-0.006s0-0.017 0-0.022c0.302-0.2 0.56-0.546 0.655-0.685-0.174 0.106-0.638 0.373-0.896 0.423-0.011 0-0.017 0-0.017-0.011s0-0.017 0.011-0.022c0.302-0.056 0.941-0.456 0.946-0.456h0.022c0.006 0.006 0.006 0.011 0 0.022 0 0-0.314 0.495-0.705 0.757 0 0-0.006 0-0.011 0z"></path>
</symbol>
</defs>
</svg>
